<svg width="787" height="572" viewBox="0 0 787 572" fill="none" xmlns="http://www.w3.org/2000/svg">
<g clip-path="url(#clip0_3_45)">
<path d="M458.706 100.843C473.443 100.843 485.39 88.8939 485.39 74.1541C485.39 59.4143 473.443 47.4654 458.706 47.4654C443.968 47.4654 432.021 59.4143 432.021 74.1541C432.021 88.8939 443.968 100.843 458.706 100.843Z" fill="#F2F2F2"/>
<path d="M665.703 496.929C705.366 466.714 724.31 415.941 712.45 367.506C712.156 366.303 711.844 365.102 711.517 363.904C703.655 335.154 684.202 307.829 655.852 298.643C632.047 290.93 606.063 296.861 581.229 293.794C532.478 287.772 494.682 248.321 468.088 207.015C441.494 165.708 421.056 119.472 385.718 85.3466C327.469 29.0972 232.451 16.9867 160.231 53.6008C88.0116 90.2151 42.0083 171.447 43.9702 252.404C45.9322 333.362 93.9854 410.763 163.771 451.829C189.407 466.915 219.058 477.602 248.566 473.863C274.17 470.618 297.435 456.858 322.918 452.773C362.985 446.35 402.796 464.468 437.45 485.581C472.104 506.695 505.578 531.72 544.957 541.508C583.195 551.012 630.568 523.695 665.703 496.929Z" fill="#F2F2F2"/>
<path d="M608.717 55.3008C607.847 54.7211 606.968 54.1714 606.098 53.6116C580.965 37.5348 554.026 24.4742 525.838 14.6996L519.302 104.878H477.868V1.53567C475.26 0.99592 472.632 0.486157 470.003 0.00637817V104.878H420.764C393.657 104.878 367.66 94.1081 348.493 74.9376C329.326 55.7672 318.557 29.7664 318.557 2.65527C315.919 3.22501 313.301 3.83464 310.682 4.48434V104.878H270.577L264.351 18.8877C235.384 29.9988 207.883 44.6106 182.462 62.3976C182.022 62.6975 181.583 63.0073 181.153 63.3072C178.944 64.8564 176.766 66.4357 174.597 68.035V412.066H292.793L290.705 383.129L279.212 224.253H510.658L499.165 383.129L497.076 412.066H613.964V58.7793C612.225 57.5998 610.476 56.4404 608.717 55.3008ZM310.682 198.015H277.313L271.147 112.754H310.682V198.015ZM470.003 198.015H413.958V196.326C413.958 195.514 413.798 194.71 413.487 193.959C413.176 193.209 412.72 192.528 412.146 191.954C411.571 191.38 410.889 190.926 410.139 190.616C409.388 190.306 408.584 190.147 407.772 190.149H383.407C382.596 190.148 381.793 190.308 381.043 190.618C380.294 190.928 379.613 191.383 379.039 191.957C378.466 192.531 378.011 193.212 377.7 193.961C377.39 194.711 377.231 195.514 377.231 196.326V198.015H318.557V112.754H470.003V198.015ZM477.868 198.015V112.754H518.733L512.567 198.015H477.868Z" fill="#3F3D56"/>
<path d="M0.669128 434.097C9.35098 444.386 18.7414 454.055 28.7717 463.034L758.897 464.033C768.928 455.054 778.318 445.385 787 435.096L0.669128 434.097Z" fill="#3F3D56"/>
<path d="M495.791 341.44V427.104C495.792 428.196 496.226 429.243 496.998 430.015C497.77 430.787 498.816 431.221 499.908 431.222H626.833C627.925 431.221 628.971 430.787 629.743 430.015C630.515 429.243 630.949 428.196 630.95 427.104V341.44C630.947 340.349 630.512 339.304 629.741 338.533C628.969 337.762 627.924 337.329 626.833 337.327H499.908C498.817 337.329 497.771 337.762 497 338.533C496.228 339.304 495.794 340.349 495.791 341.44Z" fill="#3F3D56"/>
<path d="M498.769 342.506V426.049C498.77 426.632 499.002 427.191 499.414 427.604C499.827 428.016 500.386 428.248 500.969 428.249H625.777C626.36 428.248 626.919 428.016 627.331 427.604C627.743 427.191 627.976 426.632 627.977 426.049V342.506C627.977 341.922 627.745 341.362 627.332 340.949C626.92 340.535 626.36 340.302 625.777 340.301H500.969C500.385 340.302 499.825 340.535 499.413 340.949C499 341.362 498.769 341.922 498.769 342.506Z" fill="#FCA311"/>
<path d="M493.137 443.812C493.369 444.103 493.665 444.338 494.001 444.499C494.337 444.66 494.706 444.743 495.079 444.741H630.986C631.358 444.741 631.725 444.657 632.06 444.497C632.396 444.337 632.691 444.104 632.925 443.815C633.159 443.527 633.326 443.189 633.414 442.828C633.501 442.467 633.507 442.09 633.431 441.727L631.321 431.704C631.234 431.295 631.045 430.915 630.773 430.597C630.501 430.28 630.154 430.036 629.764 429.887C629.481 429.776 629.18 429.719 628.876 429.719H497.18C496.876 429.719 496.575 429.776 496.293 429.887C495.902 430.036 495.555 430.28 495.283 430.597C495.011 430.915 494.823 431.295 494.736 431.704L492.626 441.727C492.551 442.09 492.558 442.466 492.646 442.827C492.734 443.187 492.902 443.524 493.137 443.812Z" fill="#2F2E41"/>
<path d="M624.213 434.036H627.423C627.693 434.036 627.911 433.818 627.911 433.548V432.011C627.911 431.742 627.693 431.523 627.423 431.523H624.213C623.944 431.523 623.725 431.742 623.725 432.011V433.548C623.725 433.818 623.944 434.036 624.213 434.036Z" fill="#3F3D56"/>
<path d="M615.842 434.036H619.052C619.321 434.036 619.54 433.818 619.54 433.548V432.011C619.54 431.742 619.321 431.523 619.052 431.523H615.842C615.572 431.523 615.354 431.742 615.354 432.011V433.548C615.354 433.818 615.572 434.036 615.842 434.036Z" fill="#3F3D56"/>
<path d="M607.47 434.036H610.68C610.949 434.036 611.168 433.818 611.168 433.548V432.011C611.168 431.742 610.949 431.523 610.68 431.523H607.47C607.2 431.523 606.982 431.742 606.982 432.011V433.548C606.982 433.818 607.2 434.036 607.47 434.036Z" fill="#3F3D56"/>
<path d="M599.098 434.036H602.308C602.577 434.036 602.796 433.818 602.796 433.548V432.011C602.796 431.742 602.577 431.523 602.308 431.523H599.098C598.828 431.523 598.61 431.742 598.61 432.011V433.548C598.61 433.818 598.828 434.036 599.098 434.036Z" fill="#3F3D56"/>
<path d="M590.726 434.036H593.936C594.206 434.036 594.424 433.818 594.424 433.548V432.011C594.424 431.742 594.206 431.523 593.936 431.523H590.726C590.457 431.523 590.238 431.742 590.238 432.011V433.548C590.238 433.818 590.457 434.036 590.726 434.036Z" fill="#3F3D56"/>
<path d="M582.354 434.036H585.564C585.834 434.036 586.052 433.818 586.052 433.548V432.011C586.052 431.742 585.834 431.523 585.564 431.523H582.354C582.085 431.523 581.866 431.742 581.866 432.011V433.548C581.866 433.818 582.085 434.036 582.354 434.036Z" fill="#3F3D56"/>
<path d="M573.983 434.036H577.193C577.462 434.036 577.681 433.818 577.681 433.548V432.011C577.681 431.742 577.462 431.523 577.193 431.523H573.983C573.713 431.523 573.495 431.742 573.495 432.011V433.548C573.495 433.818 573.713 434.036 573.983 434.036Z" fill="#3F3D56"/>
<path d="M565.611 434.036H568.821C569.09 434.036 569.309 433.818 569.309 433.548V432.011C569.309 431.742 569.09 431.523 568.821 431.523H565.611C565.341 431.523 565.123 431.742 565.123 432.011V433.548C565.123 433.818 565.341 434.036 565.611 434.036Z" fill="#3F3D56"/>
<path d="M557.239 434.036H560.449C560.719 434.036 560.937 433.818 560.937 433.548V432.011C560.937 431.742 560.719 431.523 560.449 431.523H557.239C556.97 431.523 556.751 431.742 556.751 432.011V433.548C556.751 433.818 556.97 434.036 557.239 434.036Z" fill="#3F3D56"/>
<path d="M548.867 434.036H552.077C552.347 434.036 552.565 433.818 552.565 433.548V432.011C552.565 431.742 552.347 431.523 552.077 431.523H548.867C548.598 431.523 548.379 431.742 548.379 432.011V433.548C548.379 433.818 548.598 434.036 548.867 434.036Z" fill="#3F3D56"/>
<path d="M540.495 434.036H543.706C543.975 434.036 544.193 433.818 544.193 433.548V432.011C544.193 431.742 543.975 431.523 543.706 431.523H540.495C540.226 431.523 540.008 431.742 540.008 432.011V433.548C540.008 433.818 540.226 434.036 540.495 434.036Z" fill="#3F3D56"/>
<path d="M532.124 434.036H535.334C535.603 434.036 535.822 433.818 535.822 433.548V432.011C535.822 431.742 535.603 431.523 535.334 431.523H532.124C531.854 431.523 531.636 431.742 531.636 432.011V433.548C531.636 433.818 531.854 434.036 532.124 434.036Z" fill="#3F3D56"/>
<path d="M523.752 434.036H526.962C527.231 434.036 527.45 433.818 527.45 433.548V432.011C527.45 431.742 527.231 431.523 526.962 431.523H523.752C523.482 431.523 523.264 431.742 523.264 432.011V433.548C523.264 433.818 523.482 434.036 523.752 434.036Z" fill="#3F3D56"/>
<path d="M515.38 434.036H518.59C518.86 434.036 519.078 433.818 519.078 433.548V432.011C519.078 431.742 518.86 431.523 518.59 431.523H515.38C515.111 431.523 514.892 431.742 514.892 432.011V433.548C514.892 433.818 515.111 434.036 515.38 434.036Z" fill="#3F3D56"/>
<path d="M507.008 434.036H510.219C510.488 434.036 510.706 433.818 510.706 433.548V432.011C510.706 431.742 510.488 431.523 510.219 431.523H507.008C506.739 431.523 506.521 431.742 506.521 432.011V433.548C506.521 433.818 506.739 434.036 507.008 434.036Z" fill="#3F3D56"/>
<path d="M498.637 434.036H501.847C502.116 434.036 502.335 433.818 502.335 433.548V432.011C502.335 431.742 502.116 431.523 501.847 431.523H498.637C498.367 431.523 498.149 431.742 498.149 432.011V433.548C498.149 433.818 498.367 434.036 498.637 434.036Z" fill="#3F3D56"/>
<path d="M624.312 438.223H627.522C627.792 438.223 628.01 438.004 628.01 437.735V436.198C628.01 435.928 627.792 435.71 627.522 435.71H624.312C624.043 435.71 623.824 435.928 623.824 436.198V437.735C623.824 438.004 624.043 438.223 624.312 438.223Z" fill="#3F3D56"/>
<path d="M615.94 438.223H619.151C619.42 438.223 619.638 438.004 619.638 437.735V436.198C619.638 435.928 619.42 435.71 619.151 435.71H615.94C615.671 435.71 615.453 435.928 615.453 436.198V437.735C615.453 438.004 615.671 438.223 615.94 438.223Z" fill="#3F3D56"/>
<path d="M607.569 438.223H610.779C611.048 438.223 611.267 438.004 611.267 437.735V436.198C611.267 435.928 611.048 435.71 610.779 435.71H607.569C607.299 435.71 607.081 435.928 607.081 436.198V437.735C607.081 438.004 607.299 438.223 607.569 438.223Z" fill="#3F3D56"/>
<path d="M599.197 438.223H602.407C602.676 438.223 602.895 438.004 602.895 437.735V436.198C602.895 435.928 602.676 435.71 602.407 435.71H599.197C598.927 435.71 598.709 435.928 598.709 436.198V437.735C598.709 438.004 598.927 438.223 599.197 438.223Z" fill="#3F3D56"/>
<path d="M590.825 438.223H594.035C594.305 438.223 594.523 438.004 594.523 437.735V436.198C594.523 435.928 594.305 435.71 594.035 435.71H590.825C590.556 435.71 590.337 435.928 590.337 436.198V437.735C590.337 438.004 590.556 438.223 590.825 438.223Z" fill="#3F3D56"/>
<path d="M582.453 438.223H585.663C585.933 438.223 586.151 438.004 586.151 437.735V436.198C586.151 435.928 585.933 435.71 585.663 435.71H582.453C582.184 435.71 581.965 435.928 581.965 436.198V437.735C581.965 438.004 582.184 438.223 582.453 438.223Z" fill="#3F3D56"/>
<path d="M574.082 438.223H577.292C577.561 438.223 577.78 438.004 577.78 437.735V436.198C577.78 435.928 577.561 435.71 577.292 435.71H574.082C573.812 435.71 573.594 435.928 573.594 436.198V437.735C573.594 438.004 573.812 438.223 574.082 438.223Z" fill="#3F3D56"/>
<path d="M565.71 438.223H568.92C569.189 438.223 569.408 438.004 569.408 437.735V436.198C569.408 435.928 569.189 435.71 568.92 435.71H565.71C565.44 435.71 565.222 435.928 565.222 436.198V437.735C565.222 438.004 565.44 438.223 565.71 438.223Z" fill="#3F3D56"/>
<path d="M557.338 438.223H560.548C560.817 438.223 561.036 438.004 561.036 437.735V436.198C561.036 435.928 560.817 435.71 560.548 435.71H557.338C557.068 435.71 556.85 435.928 556.85 436.198V437.735C556.85 438.004 557.068 438.223 557.338 438.223Z" fill="#3F3D56"/>
<path d="M548.966 438.223H552.176C552.446 438.223 552.664 438.004 552.664 437.735V436.198C552.664 435.928 552.446 435.71 552.176 435.71H548.966C548.697 435.71 548.478 435.928 548.478 436.198V437.735C548.478 438.004 548.697 438.223 548.966 438.223Z" fill="#3F3D56"/>
<path d="M540.594 438.223H543.805C544.074 438.223 544.292 438.004 544.292 437.735V436.198C544.292 435.928 544.074 435.71 543.805 435.71H540.594C540.325 435.71 540.106 435.928 540.106 436.198V437.735C540.106 438.004 540.325 438.223 540.594 438.223Z" fill="#3F3D56"/>
<path d="M532.223 438.223H535.433C535.702 438.223 535.921 438.004 535.921 437.735V436.198C535.921 435.928 535.702 435.71 535.433 435.71H532.223C531.953 435.71 531.735 435.928 531.735 436.198V437.735C531.735 438.004 531.953 438.223 532.223 438.223Z" fill="#3F3D56"/>
<path d="M523.851 438.223H527.061C527.33 438.223 527.549 438.004 527.549 437.735V436.198C527.549 435.928 527.33 435.71 527.061 435.71H523.851C523.581 435.71 523.363 435.928 523.363 436.198V437.735C523.363 438.004 523.581 438.223 523.851 438.223Z" fill="#3F3D56"/>
<path d="M515.479 438.223H518.689C518.959 438.223 519.177 438.004 519.177 437.735V436.198C519.177 435.928 518.959 435.71 518.689 435.71H515.479C515.21 435.71 514.991 435.928 514.991 436.198V437.735C514.991 438.004 515.21 438.223 515.479 438.223Z" fill="#3F3D56"/>
<path d="M507.107 438.223H510.317C510.587 438.223 510.805 438.004 510.805 437.735V436.198C510.805 435.928 510.587 435.71 510.317 435.71H507.107C506.838 435.71 506.619 435.928 506.619 436.198V437.735C506.619 438.004 506.838 438.223 507.107 438.223Z" fill="#3F3D56"/>
<path d="M498.736 438.223H501.946C502.215 438.223 502.434 438.004 502.434 437.735V436.198C502.434 435.928 502.215 435.71 501.946 435.71H498.736C498.466 435.71 498.248 435.928 498.248 436.198V437.735C498.248 438.004 498.466 438.223 498.736 438.223Z" fill="#3F3D56"/>
<path d="M554.826 443.247H587.338C587.607 443.247 587.826 443.028 587.826 442.759V441.222C587.826 440.952 587.607 440.734 587.338 440.734H554.826C554.557 440.734 554.339 440.952 554.339 441.222V442.759C554.339 443.028 554.557 443.247 554.826 443.247Z" fill="#3F3D56"/>
<path d="M520.382 358.578H517.54C516.678 358.578 515.98 359.277 515.98 360.139C515.98 361.001 516.678 361.7 517.54 361.7H520.382C521.243 361.7 521.942 361.001 521.942 360.139C521.942 359.277 521.243 358.578 520.382 358.578Z" fill="white"/>
<path d="M552.884 358.578H550.043C549.181 358.578 548.482 359.277 548.482 360.139C548.482 361.001 549.181 361.7 550.043 361.7H552.884C553.746 361.7 554.445 361.001 554.445 360.139C554.445 359.277 553.746 358.578 552.884 358.578Z" fill="white"/>
<path d="M562.094 358.578H559.252C558.39 358.578 557.692 359.277 557.692 360.139C557.692 361.001 558.39 361.7 559.252 361.7H562.094C562.955 361.7 563.654 361.001 563.654 360.139C563.654 359.277 562.955 358.578 562.094 358.578Z" fill="white"/>
<path d="M544.044 358.318H526.381C525.519 358.318 524.821 359.017 524.821 359.879C524.821 360.741 525.519 361.44 526.381 361.44H544.044C544.905 361.44 545.604 360.741 545.604 359.879C545.604 359.017 544.905 358.318 544.044 358.318Z" fill="white"/>
<path d="M587.381 358.318H569.718C568.856 358.318 568.158 359.017 568.158 359.879C568.158 360.741 568.856 361.44 569.718 361.44H587.381C588.242 361.44 588.941 360.741 588.941 359.879C588.941 359.017 588.242 358.318 587.381 358.318Z" fill="white"/>
<path d="M529.049 365.621H526.207C525.345 365.621 524.647 366.32 524.647 367.182C524.647 368.045 525.345 368.743 526.207 368.743H529.049C529.911 368.743 530.609 368.045 530.609 367.182C530.609 366.32 529.911 365.621 529.049 365.621Z" fill="white"/>
<path d="M561.552 365.621H558.71C557.848 365.621 557.15 366.32 557.15 367.182C557.15 368.045 557.848 368.743 558.71 368.743H561.552C562.414 368.743 563.112 368.045 563.112 367.182C563.112 366.32 562.414 365.621 561.552 365.621Z" fill="white"/>
<path d="M570.761 365.621H567.919C567.057 365.621 566.359 366.32 566.359 367.182C566.359 368.045 567.057 368.743 567.919 368.743H570.761C571.623 368.743 572.321 368.045 572.321 367.182C572.321 366.32 571.623 365.621 570.761 365.621Z" fill="white"/>
<path d="M552.711 365.361H535.048C534.186 365.361 533.488 366.06 533.488 366.922C533.488 367.784 534.186 368.483 535.048 368.483H552.711C553.573 368.483 554.271 367.784 554.271 366.922C554.271 366.06 553.573 365.361 552.711 365.361Z" fill="white"/>
<path d="M596.048 365.361H578.385C577.523 365.361 576.825 366.06 576.825 366.922C576.825 367.784 577.523 368.483 578.385 368.483H596.048C596.91 368.483 597.608 367.784 597.608 366.922C597.608 366.06 596.91 365.361 596.048 365.361Z" fill="white"/>
<path d="M537.716 372.665H534.875C534.013 372.665 533.314 373.364 533.314 374.226C533.314 375.088 534.013 375.787 534.875 375.787H537.716C538.578 375.787 539.277 375.088 539.277 374.226C539.277 373.364 538.578 372.665 537.716 372.665Z" fill="white"/>
<path d="M570.219 372.665H567.377C566.516 372.665 565.817 373.364 565.817 374.226C565.817 375.088 566.516 375.787 567.377 375.787H570.219C571.081 375.787 571.779 375.088 571.779 374.226C571.779 373.364 571.081 372.665 570.219 372.665Z" fill="white"/>
<path d="M579.428 372.665H576.586C575.725 372.665 575.026 373.364 575.026 374.226C575.026 375.088 575.725 375.787 576.586 375.787H579.428C580.29 375.787 580.988 375.088 580.988 374.226C580.988 373.364 580.29 372.665 579.428 372.665Z" fill="white"/>
<path d="M561.378 372.405H543.715C542.854 372.405 542.155 373.103 542.155 373.966C542.155 374.828 542.854 375.527 543.715 375.527H561.378C562.24 375.527 562.939 374.828 562.939 373.966C562.939 373.103 562.24 372.405 561.378 372.405Z" fill="white"/>
<path d="M604.716 372.405H587.053C586.191 372.405 585.492 373.103 585.492 373.966C585.492 374.828 586.191 375.527 587.053 375.527H604.716C605.577 375.527 606.276 374.828 606.276 373.966C606.276 373.103 605.577 372.405 604.716 372.405Z" fill="white"/>
<path d="M546.384 379.708H543.542C542.68 379.708 541.982 380.407 541.982 381.269C541.982 382.131 542.68 382.83 543.542 382.83H546.384C547.246 382.83 547.944 382.131 547.944 381.269C547.944 380.407 547.246 379.708 546.384 379.708Z" fill="white"/>
<path d="M578.887 379.708H576.045C575.183 379.708 574.485 380.407 574.485 381.269C574.485 382.131 575.183 382.83 576.045 382.83H578.887C579.748 382.83 580.447 382.131 580.447 381.269C580.447 380.407 579.748 379.708 578.887 379.708Z" fill="white"/>
<path d="M588.096 379.708H585.254C584.392 379.708 583.694 380.407 583.694 381.269C583.694 382.131 584.392 382.83 585.254 382.83H588.096C588.958 382.83 589.656 382.131 589.656 381.269C589.656 380.407 588.958 379.708 588.096 379.708Z" fill="white"/>
<path d="M570.046 379.448H552.383C551.521 379.448 550.823 380.147 550.823 381.009C550.823 381.871 551.521 382.57 552.383 382.57H570.046C570.907 382.57 571.606 381.871 571.606 381.009C571.606 380.147 570.907 379.448 570.046 379.448Z" fill="white"/>
<path d="M552.884 407.716H550.043C549.181 407.716 548.482 408.415 548.482 409.277C548.482 410.139 549.181 410.838 550.043 410.838H552.884C553.746 410.838 554.445 410.139 554.445 409.277C554.445 408.415 553.746 407.716 552.884 407.716Z" fill="white"/>
<path d="M562.094 407.716H559.252C558.39 407.716 557.692 408.415 557.692 409.277C557.692 410.139 558.39 410.838 559.252 410.838H562.094C562.955 410.838 563.654 410.139 563.654 409.277C563.654 408.415 562.955 407.716 562.094 407.716Z" fill="white"/>
<path d="M587.381 407.976H569.718C568.856 407.976 568.158 408.675 568.158 409.537C568.158 410.399 568.856 411.098 569.718 411.098H587.381C588.242 411.098 588.941 410.399 588.941 409.537C588.941 408.675 588.242 407.976 587.381 407.976Z" fill="white"/>
<path d="M520.382 407.716H517.54C516.678 407.716 515.98 408.415 515.98 409.277C515.98 410.139 516.678 410.838 517.54 410.838H520.382C521.243 410.838 521.942 410.139 521.942 409.277C521.942 408.415 521.243 407.716 520.382 407.716Z" fill="white"/>
<path d="M544.044 407.976H526.381C525.519 407.976 524.821 408.675 524.821 409.537C524.821 410.399 525.519 411.098 526.381 411.098H544.044C544.905 411.098 545.604 410.399 545.604 409.537C545.604 408.675 544.905 407.976 544.044 407.976Z" fill="white"/>
<path d="M529.049 400.672H526.207C525.345 400.672 524.647 401.371 524.647 402.233C524.647 403.095 525.345 403.794 526.207 403.794H529.049C529.911 403.794 530.609 403.095 530.609 402.233C530.609 401.371 529.911 400.672 529.049 400.672Z" fill="white"/>
<path d="M561.552 400.672H558.71C557.848 400.672 557.15 401.371 557.15 402.233C557.15 403.095 557.848 403.794 558.71 403.794H561.552C562.414 403.794 563.112 403.095 563.112 402.233C563.112 401.371 562.414 400.672 561.552 400.672Z" fill="white"/>
<path d="M570.761 400.672H567.919C567.057 400.672 566.359 401.371 566.359 402.233C566.359 403.095 567.057 403.794 567.919 403.794H570.761C571.623 403.794 572.321 403.095 572.321 402.233C572.321 401.371 571.623 400.672 570.761 400.672Z" fill="white"/>
<path d="M552.711 400.932H535.048C534.186 400.932 533.488 401.631 533.488 402.493C533.488 403.356 534.186 404.055 535.048 404.055H552.711C553.573 404.055 554.271 403.356 554.271 402.493C554.271 401.631 553.573 400.932 552.711 400.932Z" fill="white"/>
<path d="M537.716 393.629H534.875C534.013 393.629 533.314 394.328 533.314 395.19C533.314 396.052 534.013 396.751 534.875 396.751H537.716C538.578 396.751 539.277 396.052 539.277 395.19C539.277 394.328 538.578 393.629 537.716 393.629Z" fill="white"/>
<path d="M570.219 393.629H567.377C566.516 393.629 565.817 394.328 565.817 395.19C565.817 396.052 566.516 396.751 567.377 396.751H570.219C571.081 396.751 571.779 396.052 571.779 395.19C571.779 394.328 571.081 393.629 570.219 393.629Z" fill="white"/>
<path d="M579.428 393.629H576.586C575.725 393.629 575.026 394.328 575.026 395.19C575.026 396.052 575.725 396.751 576.586 396.751H579.428C580.29 396.751 580.988 396.052 580.988 395.19C580.988 394.328 580.29 393.629 579.428 393.629Z" fill="white"/>
<path d="M561.378 393.889H543.715C542.854 393.889 542.155 394.588 542.155 395.45C542.155 396.312 542.854 397.011 543.715 397.011H561.378C562.24 397.011 562.939 396.312 562.939 395.45C562.939 394.588 562.24 393.889 561.378 393.889Z" fill="white"/>
<path d="M546.384 386.585H543.542C542.68 386.585 541.982 387.284 541.982 388.147C541.982 389.009 542.68 389.708 543.542 389.708H546.384C547.246 389.708 547.944 389.009 547.944 388.147C547.944 387.284 547.246 386.585 546.384 386.585Z" fill="white"/>
<path d="M578.887 386.585H576.045C575.183 386.585 574.485 387.284 574.485 388.147C574.485 389.009 575.183 389.708 576.045 389.708H578.887C579.748 389.708 580.447 389.009 580.447 388.147C580.447 387.284 579.748 386.585 578.887 386.585Z" fill="white"/>
<path d="M588.096 386.585H585.254C584.392 386.585 583.694 387.284 583.694 388.147C583.694 389.009 584.392 389.708 585.254 389.708H588.096C588.958 389.708 589.656 389.009 589.656 388.147C589.656 387.284 588.958 386.585 588.096 386.585Z" fill="white"/>
<path d="M570.046 386.846H552.383C551.521 386.846 550.823 387.545 550.823 388.407C550.823 389.269 551.521 389.968 552.383 389.968H570.046C570.907 389.968 571.606 389.269 571.606 388.407C571.606 387.545 570.907 386.846 570.046 386.846Z" fill="white"/>
<path d="M505.273 490.263L491.931 469.17L533.807 435.783L551.092 416.63C553.337 414.142 556.197 412.287 559.384 411.25C562.571 410.213 565.974 410.031 569.254 410.722C572.533 411.413 575.574 412.952 578.072 415.187C580.57 417.421 582.438 420.272 583.49 423.455C585.048 428.172 584.713 433.309 582.555 437.783C580.398 442.257 576.587 445.718 571.927 447.435L544.595 457.506L505.273 490.263Z" fill="#FFB6B6"/>
<path d="M192.24 337.332V439.844H264.045V337.332C264.047 336.594 263.811 335.876 263.374 335.282C262.937 334.689 262.321 334.251 261.617 334.033C261.285 333.923 260.937 333.869 260.587 333.873H195.708C195.253 333.872 194.802 333.961 194.382 334.134C193.962 334.308 193.579 334.562 193.257 334.883C192.935 335.205 192.68 335.586 192.505 336.006C192.33 336.426 192.24 336.877 192.24 337.332ZM220.263 372.555C220.281 370.534 221.097 368.602 222.533 367.18C223.968 365.758 225.907 364.96 227.928 364.96C229.948 364.96 231.887 365.758 233.323 367.18C234.758 368.602 235.574 370.534 235.593 372.555V384.45C235.583 386.476 234.771 388.416 233.334 389.846C231.898 391.275 229.954 392.077 227.928 392.077C225.902 392.077 223.958 391.275 222.521 389.846C221.085 388.416 220.273 386.476 220.263 384.45V372.555Z" fill="#2F2E41"/>
<path d="M192.02 436.566V446.451C192.022 446.963 192.225 447.454 192.586 447.817C192.947 448.18 193.437 448.386 193.949 448.39H262.336C262.849 448.388 263.34 448.182 263.701 447.819C264.062 447.456 264.265 446.964 264.265 446.451V436.566H192.02Z" fill="#3F3D56"/>
<path d="M79.2803 182.883V370.056C79.2822 372.442 80.2304 374.729 81.9168 376.415C83.6031 378.102 85.8898 379.05 88.2747 379.052H365.602C367.987 379.05 370.274 378.102 371.96 376.415C373.646 374.729 374.595 372.442 374.597 370.056V182.883C374.591 180.5 373.641 178.216 371.955 176.532C370.269 174.847 367.985 173.9 365.602 173.897H88.2747C85.8919 173.9 83.6074 174.847 81.9215 176.532C80.2357 178.216 79.286 180.5 79.2803 182.883Z" fill="#3F3D56"/>
<path d="M85.7862 185.212V367.747C85.7884 369.022 86.2955 370.243 87.1965 371.145C88.0976 372.046 89.319 372.553 90.5932 372.555H363.294C364.568 372.553 365.789 372.046 366.69 371.145C367.591 370.243 368.098 369.022 368.101 367.747V185.212C368.1 183.936 367.594 182.712 366.693 181.809C365.792 180.906 364.569 180.397 363.294 180.394H90.5932C89.3174 180.397 88.0948 180.906 87.1937 181.809C86.2925 182.712 85.7863 183.936 85.7862 185.212Z" fill="white"/>
<path d="M136.395 447.721C136.672 448.069 137.025 448.349 137.427 448.542C137.828 448.734 138.268 448.832 138.713 448.83H300.952C301.396 448.83 301.834 448.73 302.234 448.539C302.635 448.348 302.988 448.07 303.267 447.725C303.547 447.381 303.746 446.978 303.85 446.547C303.955 446.115 303.962 445.666 303.871 445.232L301.352 433.267C301.248 432.779 301.023 432.325 300.698 431.946C300.374 431.568 299.959 431.276 299.493 431.098C299.156 430.966 298.796 430.898 298.434 430.898H141.222C140.859 430.898 140.5 430.966 140.162 431.098C139.696 431.276 139.282 431.568 138.957 431.946C138.633 432.325 138.408 432.779 138.304 433.267L135.785 445.232C135.696 445.666 135.704 446.114 135.809 446.545C135.915 446.976 136.115 447.377 136.395 447.721Z" fill="#2F2E41"/>
<path d="M354.444 205.54H99.2789C99.0137 205.534 98.7613 205.425 98.5758 205.235C98.3903 205.045 98.2865 204.79 98.2865 204.525C98.2865 204.259 98.3903 204.004 98.5758 203.815C98.7613 203.625 99.0137 203.515 99.2789 203.509H354.444C354.709 203.515 354.961 203.625 355.147 203.815C355.332 204.004 355.436 204.259 355.436 204.525C355.436 204.79 355.332 205.045 355.147 205.235C354.961 205.425 354.709 205.534 354.444 205.54Z" fill="#3F3D56"/>
<path d="M116.648 198.328C119.933 198.328 122.595 195.605 122.595 192.247C122.595 188.889 119.933 186.167 116.648 186.167C113.364 186.167 110.702 188.889 110.702 192.247C110.702 195.605 113.364 198.328 116.648 198.328Z" fill="#3F3D56"/>
<path d="M137.192 198.328C140.476 198.328 143.138 195.605 143.138 192.247C143.138 188.889 140.476 186.167 137.192 186.167C133.907 186.167 131.245 188.889 131.245 192.247C131.245 195.605 133.907 198.328 137.192 198.328Z" fill="#3F3D56"/>
<path d="M157.735 198.328C161.019 198.328 163.682 195.605 163.682 192.247C163.682 188.889 161.019 186.167 157.735 186.167C154.451 186.167 151.788 188.889 151.788 192.247C151.788 195.605 154.451 198.328 157.735 198.328Z" fill="#3F3D56"/>
<path d="M342.073 187.671H327.482C327.194 187.677 326.919 187.797 326.718 188.003C326.516 188.21 326.403 188.487 326.403 188.776C326.403 189.064 326.516 189.342 326.718 189.548C326.919 189.755 327.194 189.874 327.482 189.881H342.073C342.363 189.877 342.64 189.758 342.844 189.552C343.048 189.345 343.162 189.066 343.162 188.776C343.162 188.485 343.048 188.207 342.844 188C342.64 187.793 342.363 187.675 342.073 187.671Z" fill="#3F3D56"/>
<path d="M342.073 191.819H327.482C327.194 191.825 326.919 191.944 326.717 192.151C326.515 192.357 326.402 192.635 326.402 192.924C326.402 193.213 326.515 193.49 326.717 193.697C326.919 193.903 327.194 194.022 327.482 194.029H342.073C342.364 194.025 342.641 193.907 342.846 193.7C343.05 193.494 343.164 193.215 343.164 192.924C343.164 192.633 343.05 192.354 342.846 192.147C342.641 191.94 342.364 191.822 342.073 191.819Z" fill="#3F3D56"/>
<path d="M342.073 195.967H327.482C327.194 195.973 326.919 196.093 326.718 196.299C326.516 196.506 326.403 196.783 326.403 197.072C326.403 197.36 326.516 197.638 326.718 197.844C326.919 198.051 327.194 198.17 327.482 198.177H342.073C342.363 198.173 342.64 198.054 342.844 197.848C343.048 197.641 343.162 197.362 343.162 197.072C343.162 196.781 343.048 196.503 342.844 196.296C342.64 196.089 342.363 195.971 342.073 195.967Z" fill="#3F3D56"/>
<path d="M693.834 440.905C694.274 442.187 695.109 443.297 696.219 444.074C697.33 444.852 698.658 445.258 700.013 445.234L726.488 444.552C727.854 444.526 729.173 444.058 730.251 443.219C731.328 442.38 732.105 441.215 732.466 439.897L736.212 399.828C737.541 400.431 738.988 400.728 740.447 400.699C741.715 400.667 742.964 400.386 744.123 399.871C745.282 399.357 746.328 398.619 747.202 397.7C748.075 396.781 748.76 395.699 749.215 394.515C749.671 393.332 749.889 392.07 749.857 390.802C749.826 389.535 749.544 388.286 749.03 387.126C748.515 385.967 747.778 384.921 746.859 384.047C745.94 383.173 744.858 382.489 743.675 382.033C742.492 381.577 741.23 381.359 739.963 381.391C739.38 381.389 738.798 381.449 738.228 381.571C737.607 380.9 736.854 380.366 736.015 380.004C735.176 379.642 734.27 379.46 733.357 379.469L692.631 380.521C692.294 380.534 691.958 380.575 691.627 380.646C690.734 380.812 689.887 381.168 689.143 381.69C688.399 382.211 687.775 382.886 687.313 383.669C686.852 384.451 686.564 385.324 686.468 386.227C686.371 387.131 686.47 388.044 686.757 388.907L693.834 440.905ZM736.98 397.108L739.646 387.559C739.95 386.456 739.957 385.293 739.667 384.186C739.796 384.186 739.91 384.125 740.04 384.124C741.868 384.086 743.636 384.775 744.957 386.039C746.278 387.304 747.044 389.04 747.087 390.868C747.129 392.697 746.446 394.467 745.185 395.792C743.925 397.117 742.191 397.887 740.363 397.935C739.181 397.972 738.012 397.686 736.98 397.108Z" fill="#2F2E41"/>
<path d="M691.627 380.646C692.494 385.608 702.249 389.097 713.979 388.49C724.765 387.993 733.584 384.205 735.2 379.715C734.602 379.538 733.98 379.455 733.357 379.469L692.631 380.521C692.294 380.534 691.957 380.575 691.627 380.646Z" fill="#3F3D56"/>
<path d="M716.128 418.887C716.182 418.873 716.233 418.851 716.279 418.82L722.029 415.056C722.098 415.011 722.155 414.949 722.195 414.876C722.235 414.803 722.255 414.721 722.255 414.638C722.255 414.555 722.235 414.474 722.195 414.401C722.156 414.328 722.099 414.266 722.029 414.22L716.053 410.305C715.998 410.269 715.937 410.244 715.872 410.231C715.808 410.219 715.741 410.219 715.677 410.232C715.612 410.246 715.551 410.271 715.497 410.308C715.442 410.345 715.396 410.393 715.36 410.448C715.324 410.503 715.299 410.564 715.287 410.629C715.275 410.694 715.275 410.76 715.289 410.824C715.302 410.889 715.328 410.95 715.366 411.004C715.403 411.058 715.45 411.105 715.505 411.141L720.843 414.637L715.732 417.984C715.633 418.049 715.561 418.147 715.527 418.26C715.493 418.373 715.501 418.495 715.548 418.603C715.596 418.712 715.68 418.799 715.786 418.851C715.893 418.903 716.014 418.916 716.128 418.887Z" fill="#6C63FF"/>
<path d="M707.047 419.306C707.144 419.281 707.231 419.229 707.297 419.154C707.364 419.08 707.406 418.988 707.42 418.889C707.433 418.791 707.417 418.69 707.373 418.601C707.329 418.511 707.26 418.437 707.173 418.388L701.874 415.348L706.996 411.543C707.049 411.503 707.093 411.454 707.127 411.398C707.16 411.342 707.183 411.279 707.192 411.215C707.202 411.15 707.198 411.084 707.182 411.02C707.166 410.956 707.138 410.896 707.099 410.844C707.06 410.791 707.011 410.747 706.955 410.713C706.898 410.679 706.836 410.657 706.771 410.648C706.706 410.638 706.64 410.641 706.576 410.657C706.513 410.673 706.453 410.702 706.4 410.741L700.665 415.002C700.599 415.051 700.545 415.116 700.51 415.192C700.475 415.267 700.459 415.35 700.464 415.432C700.469 415.515 700.495 415.596 700.538 415.666C700.582 415.737 700.643 415.795 700.715 415.836L706.676 419.255C706.789 419.319 706.922 419.338 707.047 419.306Z" fill="#6C63FF"/>
<path d="M715.557 422.185C715.605 422.173 715.651 422.153 715.693 422.127C715.75 422.093 715.798 422.048 715.837 421.995C715.876 421.942 715.904 421.882 715.92 421.818C715.935 421.754 715.938 421.688 715.928 421.623C715.918 421.558 715.895 421.496 715.861 421.44L707.71 408.038C707.641 407.925 707.53 407.844 707.402 407.813C707.273 407.781 707.137 407.803 707.024 407.872C706.911 407.941 706.83 408.052 706.798 408.18C706.767 408.309 706.788 408.445 706.857 408.558L715.007 421.96C715.063 422.052 715.146 422.123 715.245 422.163C715.344 422.203 715.453 422.211 715.557 422.185Z" fill="#6C63FF"/>
<path d="M257.349 260.713H213.186C211.384 260.713 209.924 262.174 209.924 263.976V268.292C209.924 270.094 211.384 271.555 213.186 271.555H257.349C259.151 271.555 260.611 270.094 260.611 268.292V263.976C260.611 262.174 259.151 260.713 257.349 260.713Z" fill="#FCA311"/>
<path d="M283.092 282.395H187.443C185.642 282.395 184.181 283.855 184.181 285.658V289.973C184.181 291.775 185.642 293.236 187.443 293.236H283.092C284.893 293.236 286.354 291.775 286.354 289.973V285.658C286.354 283.855 284.893 282.395 283.092 282.395Z" fill="#FCA311"/>
<path d="M283.092 304.076H187.443C185.642 304.076 184.181 305.537 184.181 307.339V311.655C184.181 313.457 185.642 314.918 187.443 314.918H283.092C284.893 314.918 286.354 313.457 286.354 311.655V307.339C286.354 305.537 284.893 304.076 283.092 304.076Z" fill="#FCA311"/>
<path d="M291.2 376.678L291.416 377.362L291.428 377.385L297.949 397.214L305.45 420.065L319.564 463.006L319.701 469.676V469.699L320.75 523.359L317.843 530.634L321.115 542.561C321.115 542.561 319.61 524.532 311.538 534.885C306.967 540.769 301.62 546.789 297.231 552.434C303.626 555.022 310.125 557.363 316.726 559.457C318.151 559.914 319.587 560.347 321.024 560.78C321.331 560.871 321.639 560.963 321.947 561.054C343.828 567.526 366.449 571.162 389.256 571.875C390.442 571.909 391.605 571.932 392.733 571.954C393.132 571.966 393.52 571.977 393.908 571.977C395.184 571.989 396.45 572 397.727 572C400.303 572 402.868 571.962 405.422 571.886C424.324 571.353 443.115 568.811 461.479 564.303C461.353 556.721 461.011 547.861 460.521 538.397C460.293 533.756 455.174 528.728 454.866 523.871C454.65 520.222 459.244 516.79 459.005 513.084C457.454 490.268 455.516 499.026 454.08 482.869C453.932 481.284 453.795 479.768 453.669 478.319C452.746 467.943 452.107 461.455 452.107 461.455L458.241 422.79L467.874 362.083L467.133 360.863L466.301 360.453L415.489 335.299L412.73 328.23C411.926 326.193 410.531 324.443 408.725 323.206C406.919 321.968 404.784 321.3 402.595 321.285L369.123 321.149C367.386 321.141 365.672 321.547 364.123 322.335C362.575 323.122 361.236 324.267 360.219 325.675L351.155 338.229L291.2 376.678Z" fill="#3F3D56"/>
<path d="M327.283 453.451L319.701 469.676L314.525 480.76L305.621 527.384L301.164 532.116L297.345 515.364L257.372 524.241C256.061 516.955 257.021 524.488 256.211 516.495C256.439 516.267 256.679 516.039 256.918 515.81C257.557 515.218 258.092 514.659 258.081 514.123C257.625 486.552 258.993 439.631 270.416 411.205C272.206 406.564 274.565 402.163 277.439 398.103C277.667 397.796 277.884 397.488 278.1 397.18C283.367 389.802 286.696 382.539 291.416 377.374V377.363C291.446 377.339 291.472 377.312 291.496 377.283C291.513 377.274 291.529 377.263 291.542 377.248L323.965 360.054L325.356 399.141L326.348 427.237L327.283 453.451Z" fill="#3F3D56"/>
<path d="M444.195 458.059L453.665 478.325L456.97 485.383L465.871 532.003L470.314 536.723L474.142 519.976L475.941 519.607L508.379 512.887L517.834 542.92C519.965 539.369 520.804 535.19 520.211 531.092C519.617 526.993 517.626 523.225 514.575 520.425C513.929 519.84 513.391 519.271 513.406 518.733C513.945 486.305 511.961 427.092 494.051 402.721C488.363 394.987 484.95 387.283 479.984 381.902C479.969 381.886 479.969 381.871 479.954 381.871L467.87 362.082L467.132 360.867L466.302 360.452L444.195 458.059Z" fill="#3F3D56"/>
<path d="M386.826 311.622C411.419 311.622 431.356 291.682 431.356 267.084C431.356 242.486 411.419 222.546 386.826 222.546C362.232 222.546 342.295 242.486 342.295 267.084C342.295 291.682 362.232 311.622 386.826 311.622Z" fill="#FFB6B6"/>
<path d="M447.014 235.974C446.669 235.605 446.253 235.31 445.791 235.106C445.329 234.901 444.83 234.792 444.325 234.785L444.995 232.926C445.214 232.34 445.273 231.707 445.166 231.091C445.059 230.475 444.791 229.899 444.388 229.421C443.985 228.943 443.463 228.58 442.874 228.371C442.285 228.161 441.652 228.112 441.037 228.228L438.599 228.698L438.829 227.068C438.917 226.462 438.846 225.842 438.622 225.271C438.398 224.7 438.03 224.198 437.553 223.812C437.076 223.427 436.507 223.173 435.902 223.074C435.297 222.976 434.676 223.036 434.102 223.25C433.579 223.456 433.017 223.542 432.457 223.502C431.896 223.462 431.352 223.298 430.864 223.02C430.373 222.751 429.948 222.378 429.616 221.928C429.285 221.477 429.056 220.96 428.945 220.411L428.096 216.313L428.006 216.093C423.868 209.197 415.913 204.179 406.179 202.34C397.514 200.69 388.63 201.53 380.065 202.32C376.668 202.64 372.83 202.999 369.632 204.958C366.914 206.638 364.615 209.996 365.085 213.385C356.64 210.796 347.586 215.963 343.098 222.48C337.782 230.237 336.912 239.952 336.772 247.549C336.393 265.521 340.1 280.224 347.765 291.259C348.325 292.058 348.465 293.728 349.574 294.287L349.345 293.917C350.584 294.537 351.843 295.537 351.373 296.606C350.024 299.685 358.988 306.492 365.305 308.741C376.827 312.849 392.148 312.499 402.921 311.02L403.301 308.471C407.189 307.941 409.927 306.931 410.696 305.352C412.056 304.193 413.215 303.153 414.224 302.194L414.234 302.184C414.254 302.164 414.294 302.134 414.314 302.114C419.181 297.446 420.31 294.787 420.82 290.739C421.31 286.771 420.44 282.743 419.551 279.114C438.279 282.013 412.175 259.163 429.625 254.746C429.825 254.684 430.028 254.634 430.234 254.596C430.744 254.476 431.254 254.356 431.743 254.216C434.104 253.575 436.364 252.61 438.459 251.347C443.336 248.378 444.945 244.44 447.463 240.002C447.827 239.37 447.979 238.639 447.898 237.915C447.817 237.19 447.508 236.51 447.014 235.974Z" fill="#2F2E41"/>
<path d="M544.323 461.23C544.313 462.979 544.293 465.428 544.213 468.457C544.203 468.877 544.193 469.306 544.183 469.746C544.053 475.314 543.923 479.981 543.714 485.169C543.704 485.529 543.694 485.879 543.674 486.239C543.394 493.475 542.954 501.901 542.195 515.245C540.785 539.894 538.327 518.634 535.858 527.28C535.739 527.709 535.609 528.219 535.489 528.819C535.115 530.995 534.484 533.119 533.61 535.146C532.301 535.926 530.952 536.675 529.622 537.425C525.835 539.534 521.987 541.563 518.11 543.492C515.931 544.572 513.742 545.631 511.544 546.651C511.194 546.811 510.854 546.971 510.514 547.121C499.255 552.329 487.652 556.757 475.786 560.374C473.467 561.074 471.159 561.754 468.82 562.383C466.382 563.063 463.943 563.703 461.475 564.303C443.111 568.812 424.321 571.355 405.42 571.889C402.871 571.969 400.303 571.999 397.724 571.999C396.445 571.999 395.186 571.989 393.907 571.979C393.517 571.979 393.127 571.969 392.738 571.959C391.608 571.929 390.439 571.909 389.26 571.879C366.453 571.168 343.832 567.53 321.952 561.054L321.022 560.784C319.583 560.344 318.154 559.915 316.725 559.455C310.129 557.366 303.63 555.027 297.227 552.438C292.34 550.469 287.51 548.357 282.736 546.101C282.692 546.089 282.652 546.069 282.616 546.041C281.617 545.581 280.607 545.101 279.608 544.612C279.478 544.542 279.338 544.472 279.198 544.402C275.47 542.583 271.783 540.677 268.135 538.684C265.067 531.638 260.75 530.288 258.071 524.091C257.292 522.25 256.728 520.325 256.392 518.354C256.392 518.334 256.382 518.314 256.382 518.284C256.662 522.002 255.193 511.687 256.372 518.244C256.362 518.124 256.352 517.994 256.342 517.844C256.312 517.484 256.273 517.044 256.213 516.495C252.785 483.02 253.005 444.738 251.515 413.192C251.416 411.153 251.312 409.201 251.206 407.335C251.176 406.715 251.136 406.106 251.096 405.506C251.166 405.326 251.246 405.136 251.336 404.956C251.355 404.904 251.378 404.854 251.406 404.806C251.435 404.744 251.468 404.684 251.505 404.626C251.525 404.596 251.555 404.556 251.575 404.526C251.59 404.492 251.607 404.459 251.625 404.426C251.715 404.286 251.815 404.137 251.925 403.997C251.975 403.937 252.015 403.887 252.065 403.837C252.1 403.786 252.14 403.739 252.185 403.697C252.216 403.649 252.253 403.605 252.295 403.567C252.335 403.527 252.375 403.477 252.425 403.427C252.446 403.395 252.473 403.368 252.505 403.347C252.584 403.256 252.671 403.173 252.765 403.097C253.121 402.769 253.502 402.468 253.904 402.197C254.044 402.108 254.194 402.018 254.334 401.918C255.341 401.315 256.401 400.806 257.502 400.398C257.881 400.258 258.261 400.128 258.671 399.989C258.821 399.949 258.961 399.899 259.111 399.849C259.331 399.779 259.55 399.709 259.78 399.659C260.92 399.319 262.149 399.029 263.478 398.759C263.638 398.729 263.808 398.699 263.978 398.659C264.218 398.609 264.467 398.569 264.717 398.529C265.057 398.469 265.407 398.409 265.757 398.349C268.725 397.879 272.093 397.53 275.81 397.3C276.16 397.28 276.51 397.26 276.86 397.24C277.269 397.22 277.679 397.2 278.099 397.18C278.449 397.16 278.808 397.15 279.168 397.14C279.518 397.12 279.878 397.11 280.248 397.1C281.257 397.07 282.296 397.04 283.356 397.02C286.374 396.96 289.552 396.98 292.89 397.05C294.439 397.09 296.018 397.13 297.637 397.2C297.747 397.2 297.847 397.21 297.947 397.21C299.356 397.26 300.775 397.32 302.234 397.4C303.253 397.45 304.283 397.5 305.312 397.56C306.281 397.62 307.261 397.68 308.25 397.75C309.02 397.79 309.789 397.849 310.569 397.899C311.228 397.949 311.888 397.999 312.547 398.039L313.447 398.099C313.937 398.139 314.426 398.169 314.926 398.219C316.025 398.309 317.125 398.399 318.244 398.489C319.353 398.589 320.482 398.689 321.612 398.789C322.741 398.889 323.88 398.999 325.02 399.109C325.14 399.119 325.25 399.129 325.359 399.139C326.399 399.249 327.438 399.349 328.488 399.459C328.727 399.479 328.977 399.499 329.217 399.529C330.218 399.629 331.238 399.747 332.247 399.854C332.557 399.888 332.865 399.92 333.176 399.954C333.967 400.04 334.747 400.115 335.543 400.208C336.592 400.328 337.662 400.438 338.701 400.578C339.511 400.668 340.32 400.758 341.13 400.858C342.399 401.008 343.688 401.168 344.977 401.338C345.467 401.398 345.957 401.458 346.446 401.528C350.124 401.988 353.842 402.497 357.619 403.027C363.346 403.837 369.162 404.716 375.018 405.666C380.885 406.615 386.785 407.618 392.717 408.675C394.217 408.944 395.716 409.214 397.225 409.494C397.904 409.624 398.584 409.754 399.263 409.884C400.423 410.094 401.582 410.314 402.741 410.534C403.9 410.753 405.06 410.973 406.219 411.203C407.598 411.473 408.987 411.743 410.366 412.013C419.451 413.812 428.485 415.731 437.3 417.74C438.749 418.07 440.198 418.41 441.637 418.74C444.515 419.41 447.367 420.089 450.192 420.779C450.971 420.959 451.741 421.149 452.51 421.339C454.429 421.818 456.348 422.298 458.237 422.788L458.566 422.878C459.956 423.218 461.315 423.568 462.674 423.927C465.882 424.767 469.037 425.617 472.138 426.476C474.197 427.046 476.232 427.622 478.244 428.205C481.252 429.075 484.201 429.955 487.069 430.844C487.778 431.064 488.488 431.284 489.187 431.494C491.286 432.144 493.355 432.803 495.364 433.463C496.963 433.983 498.522 434.513 500.061 435.042C501.6 435.572 503.109 436.102 504.588 436.632C505.537 436.971 506.477 437.331 507.416 437.671C508.765 438.171 510.094 438.671 511.394 439.17C511.793 439.32 512.183 439.48 512.573 439.63C512.823 439.74 513.063 439.83 513.302 439.93C513.772 440.12 514.252 440.3 514.712 440.49C515.181 440.67 515.641 440.86 516.101 441.059C516.55 441.239 517.01 441.429 517.45 441.619C517.9 441.799 518.339 441.989 518.779 442.189C519.149 442.339 519.509 442.499 519.858 442.659C520.568 442.969 521.277 443.278 521.967 443.598C522.307 443.758 522.647 443.908 522.986 444.068L523.766 444.428C523.876 444.488 523.986 444.538 524.096 444.588C524.346 444.708 524.605 444.838 524.855 444.958C525.435 445.228 526.005 445.517 526.564 445.787C527.314 446.167 528.043 446.547 528.743 446.917C529.452 447.297 530.142 447.676 530.802 448.046C530.911 448.106 531.011 448.166 531.121 448.226C531.271 448.306 531.421 448.396 531.571 448.476C532.081 448.766 532.57 449.066 533.06 449.356C534.02 449.945 534.929 450.525 535.778 451.105C535.968 451.235 536.148 451.365 536.338 451.485C536.968 451.934 537.567 452.374 538.127 452.824C538.127 452.834 538.127 452.834 538.137 452.834C538.327 452.974 538.507 453.124 538.687 453.264C538.837 453.404 538.996 453.524 539.146 453.664C539.666 454.113 540.146 454.543 540.585 454.983C540.733 455.119 540.873 455.262 541.005 455.413C541.063 455.461 541.117 455.515 541.165 455.573C541.365 455.773 541.545 455.973 541.715 456.172C541.741 456.2 541.765 456.23 541.785 456.262C542.025 456.542 542.244 456.822 542.454 457.102C542.554 457.242 542.664 457.382 542.754 457.522C542.874 457.692 542.994 457.872 543.094 458.042C543.184 458.182 543.264 458.331 543.344 458.471C543.556 458.832 543.736 459.21 543.883 459.601C543.996 459.866 544.086 460.14 544.153 460.42C544.229 460.686 544.286 460.957 544.323 461.23Z" fill="#2F2E41"/>
<path opacity="0.2" d="M544.323 461.23C544.313 462.979 544.293 465.428 544.213 468.457C544.203 468.877 544.183 469.306 544.173 469.746C544.073 473.994 543.924 479.242 543.714 485.169C543.704 485.529 543.694 485.879 543.674 486.239C543.394 493.475 542.954 501.901 542.195 515.245C540.785 539.894 538.327 518.634 535.859 527.28C529.003 523.062 521.487 518.644 513.452 514.106C512.003 513.286 510.541 512.463 509.065 511.637C492.995 502.671 475.046 493.275 456.308 483.97C455.568 483.6 454.819 483.23 454.079 482.87C411.156 461.65 364.305 441.01 326.349 427.236C319.023 424.577 312.028 422.178 305.452 420.069C291.6 415.641 279.628 412.543 270.414 411.203C260.82 409.804 254.194 410.304 251.515 413.192C251.415 411.153 251.312 409.201 251.206 407.335C251.166 406.715 251.126 406.106 251.086 405.506C251.147 405.341 251.228 405.184 251.305 405.026C251.316 405.003 251.324 404.979 251.336 404.956C251.355 404.904 251.378 404.854 251.406 404.806C251.435 404.744 251.468 404.684 251.505 404.626C251.538 404.555 251.578 404.488 251.625 404.426C251.715 404.286 251.815 404.137 251.925 403.997C252.006 403.892 252.093 403.792 252.185 403.697C252.216 403.649 252.253 403.605 252.295 403.567C252.335 403.527 252.375 403.477 252.425 403.427C252.446 403.395 252.473 403.368 252.505 403.347C252.584 403.256 252.671 403.172 252.765 403.097C253.121 402.769 253.502 402.468 253.904 402.197C254.044 402.107 254.194 402.017 254.334 401.918C255.341 401.315 256.401 400.806 257.502 400.398C257.881 400.258 258.261 400.128 258.671 399.988C258.821 399.948 258.961 399.899 259.111 399.849C259.331 399.779 259.55 399.709 259.78 399.659C260.92 399.319 262.149 399.029 263.478 398.759C263.878 398.679 264.297 398.599 264.717 398.529C265.057 398.469 265.407 398.409 265.757 398.349C268.725 397.879 272.093 397.53 275.81 397.3C276.16 397.28 276.51 397.26 276.86 397.24C277.269 397.22 277.679 397.2 278.099 397.18C278.449 397.16 278.808 397.15 279.168 397.14C279.518 397.12 279.878 397.11 280.248 397.1C281.257 397.07 282.296 397.04 283.356 397.02C286.374 396.97 289.552 396.99 292.89 397.06C294.439 397.09 296.018 397.14 297.637 397.21C297.737 397.21 297.847 397.22 297.947 397.22C299.356 397.26 300.785 397.33 302.234 397.4C303.253 397.45 304.283 397.5 305.312 397.56C306.281 397.62 307.261 397.68 308.25 397.749C309.02 397.789 309.789 397.849 310.569 397.899C311.228 397.949 311.888 397.999 312.547 398.039C313.337 398.099 314.126 398.159 314.926 398.219C316.025 398.309 317.125 398.399 318.244 398.489C319.353 398.589 320.482 398.689 321.612 398.789C322.741 398.889 323.88 398.999 325.02 399.109C325.14 399.119 325.25 399.129 325.359 399.139C326.399 399.249 327.438 399.349 328.488 399.459C334.304 400.048 340.29 400.738 346.446 401.528C350.124 401.998 353.848 402.501 357.619 403.037C363.346 403.847 369.162 404.726 375.019 405.666C380.885 406.615 386.785 407.618 392.718 408.674C394.217 408.944 395.716 409.214 397.225 409.494C399.064 409.834 400.902 410.18 402.741 410.534C403.901 410.753 405.06 410.973 406.219 411.203C407.598 411.473 408.987 411.743 410.367 412.013C419.451 413.812 428.485 415.731 437.3 417.74C438.749 418.07 440.198 418.41 441.637 418.74C444.515 419.409 447.367 420.089 450.192 420.779C450.971 420.969 451.741 421.159 452.51 421.349C454.439 421.828 456.348 422.308 458.237 422.788V422.798C458.347 422.818 458.457 422.848 458.567 422.878C459.946 423.228 461.315 423.578 462.674 423.937C465.882 424.777 469.037 425.623 472.138 426.476C474.197 427.056 476.236 427.626 478.244 428.205C481.252 429.085 484.201 429.965 487.069 430.844C487.778 431.064 488.488 431.284 489.188 431.494C491.286 432.154 493.345 432.81 495.364 433.463C496.963 433.983 498.522 434.513 500.061 435.042C501.6 435.572 503.109 436.102 504.588 436.632C505.547 436.971 506.487 437.321 507.416 437.661C508.775 438.161 510.095 438.661 511.394 439.17C511.793 439.32 512.183 439.48 512.573 439.63C513.302 439.91 514.012 440.2 514.712 440.49C515.181 440.67 515.641 440.86 516.101 441.059C516.551 441.239 517.01 441.429 517.45 441.619C517.9 441.799 518.339 441.989 518.779 442.189C519.149 442.339 519.509 442.499 519.858 442.659C520.568 442.969 521.278 443.278 521.967 443.598C522.307 443.758 522.647 443.908 522.987 444.068L523.766 444.428C523.876 444.488 523.986 444.538 524.096 444.588C524.945 444.988 525.765 445.387 526.564 445.787C527.314 446.167 528.043 446.547 528.743 446.917C529.572 447.357 530.362 447.786 531.121 448.226C531.271 448.306 531.421 448.396 531.571 448.476C532.081 448.766 532.57 449.066 533.06 449.356C534.02 449.945 534.929 450.525 535.779 451.105C536.618 451.685 537.398 452.254 538.127 452.824C538.127 452.834 538.127 452.834 538.137 452.834C538.487 453.114 538.827 453.394 539.146 453.664C539.666 454.113 540.146 454.543 540.586 454.983C540.733 455.119 540.873 455.262 541.005 455.413C541.063 455.461 541.117 455.515 541.165 455.573C541.375 455.803 541.585 456.033 541.785 456.262C542.025 456.542 542.245 456.822 542.454 457.102C542.554 457.242 542.664 457.382 542.754 457.522C542.874 457.692 542.994 457.872 543.094 458.042C543.184 458.182 543.264 458.331 543.344 458.471C543.556 458.832 543.737 459.21 543.884 459.601C543.993 459.867 544.083 460.141 544.153 460.42C544.229 460.686 544.286 460.957 544.323 461.23Z" fill="black"/>
</g>
<defs>
<clipPath id="clip0_3_45">
<rect width="786.331" height="571.994" fill="white" transform="translate(0.669189 0.00643921)"/>
</clipPath>
</defs>
</svg>
