<svg width="202" height="44" viewBox="0 0 202 44" fill="none" xmlns="http://www.w3.org/2000/svg">
<ellipse cx="23" cy="22" rx="23" ry="22" fill="#FCA311"/>
<path d="M33.8694 30.9997V21.7887C33.8694 20.9216 33.8968 19.9684 33.9515 18.9294L33.9866 18.1559H33.846C33.596 19.4762 33.4046 20.3903 33.2718 20.8981L30.7991 30.9997H26.0413L23.4515 21.0153C23.3812 20.7653 23.1976 19.8122 22.9007 18.1559H22.7601C22.8694 20.7809 22.9241 22.4216 22.9241 23.0778V30.9997H18.4827V14.195H26.0648L28.3734 23.3239C28.428 23.5114 28.4984 23.8942 28.5843 24.4723C28.678 25.0426 28.7366 25.4841 28.7601 25.7966H28.8304C28.9163 25.0856 29.053 24.2458 29.2405 23.277L31.3968 14.195H38.8616V30.9997H33.8694ZM48.3773 30.9997V29.1716H48.3304C47.5335 30.5856 46.3148 31.2926 44.6741 31.2926C43.5413 31.2926 42.6546 30.9567 42.014 30.2848C41.3734 29.613 41.053 28.7145 41.053 27.5895C41.053 25.2301 42.5023 23.863 45.4007 23.488L48.3773 23.1012C48.3773 22.7106 48.2015 22.3903 47.8499 22.1403C47.4984 21.8903 47.0257 21.7653 46.4319 21.7653C45.0882 21.7653 43.6702 22.1481 42.178 22.9137V19.6676C42.8265 19.3864 43.639 19.1559 44.6155 18.9762C45.5921 18.7966 46.428 18.7067 47.1234 18.7067C49.1624 18.7067 50.639 19.1442 51.553 20.0192C52.4749 20.8864 52.9359 22.3395 52.9359 24.3786V30.9997H48.3773ZM45.4241 26.9216C45.4241 27.2497 45.5257 27.5192 45.7288 27.7301C45.9398 27.9411 46.2366 28.0466 46.6194 28.0466C47.1429 28.0466 47.5648 27.8512 47.8851 27.4606C48.2132 27.07 48.3773 26.57 48.3773 25.9606V25.5036L46.6898 25.738C45.846 25.8786 45.4241 26.2731 45.4241 26.9216ZM62.9788 30.9997V24.4489C62.9788 23.7067 62.8655 23.1755 62.639 22.8551C62.4202 22.527 62.0609 22.363 61.5609 22.363C61.1312 22.363 60.7952 22.5309 60.553 22.8669C60.3109 23.2028 60.1898 23.6325 60.1898 24.1559V30.9997H55.1976V18.9997H60.1898V20.8747H60.2366C60.6351 20.1872 61.1702 19.6559 61.8421 19.2809C62.514 18.8981 63.2444 18.7067 64.0335 18.7067C66.6585 18.7067 67.971 20.363 67.971 23.6755V30.9997H62.9788ZM78.2366 30.9997V29.6051H78.1898C77.7913 30.1286 77.2718 30.5426 76.6312 30.8473C75.9905 31.1442 75.3577 31.2926 74.7327 31.2926C73.7093 31.2926 72.8069 31.0426 72.0257 30.5426C71.2444 30.0348 70.6585 29.3278 70.2679 28.4216C69.8851 27.5153 69.6937 26.445 69.6937 25.2106C69.6937 23.9372 69.9241 22.8083 70.3851 21.8239C70.846 20.8395 71.4944 20.0739 72.3304 19.527C73.1663 18.9801 74.1038 18.7067 75.1429 18.7067C75.6351 18.7067 76.0882 18.777 76.5023 18.9176C76.9241 19.0583 77.2874 19.2497 77.5921 19.4919C77.9046 19.7262 78.1038 19.9606 78.1898 20.195H78.2366V13.2341H83.2288V30.9997H78.2366ZM78.3421 24.6364C78.3421 23.9176 78.1819 23.3591 77.8616 22.9606C77.5491 22.5622 77.1234 22.363 76.5843 22.363C76.0452 22.363 75.6038 22.613 75.2601 23.113C74.9241 23.6051 74.7562 24.2653 74.7562 25.0934C74.7562 26.7887 75.3421 27.6364 76.514 27.6364C77.0687 27.6364 77.5101 27.4098 77.8382 26.9567C78.1741 26.4958 78.3421 25.8278 78.3421 24.9528V24.6364ZM92.2991 30.9997V29.1716H92.2523C91.4554 30.5856 90.2366 31.2926 88.596 31.2926C87.4632 31.2926 86.5765 30.9567 85.9359 30.2848C85.2952 29.613 84.9749 28.7145 84.9749 27.5895C84.9749 25.2301 86.4241 23.863 89.3226 23.488L92.2991 23.1012C92.2991 22.7106 92.1234 22.3903 91.7718 22.1403C91.4202 21.8903 90.9476 21.7653 90.3538 21.7653C89.0101 21.7653 87.5921 22.1481 86.0999 22.9137V19.6676C86.7484 19.3864 87.5609 19.1559 88.5374 18.9762C89.514 18.7966 90.3499 18.7067 91.0452 18.7067C93.0843 18.7067 94.5609 19.1442 95.4749 20.0192C96.3968 20.8864 96.8577 22.3395 96.8577 24.3786V30.9997H92.2991ZM89.346 26.9216C89.346 27.2497 89.4476 27.5192 89.6507 27.7301C89.8616 27.9411 90.1585 28.0466 90.5413 28.0466C91.0648 28.0466 91.4866 27.8512 91.8069 27.4606C92.1351 27.07 92.2991 26.57 92.2991 25.9606V25.5036L90.6116 25.738C89.7679 25.8786 89.346 26.2731 89.346 26.9216ZM108.143 23.277C107.955 23.1911 107.701 23.113 107.381 23.0426C107.061 22.9723 106.795 22.9372 106.584 22.9372C104.936 22.9372 104.112 23.8903 104.112 25.7966V30.9997H99.1194V18.9997H104.112V21.1091H104.159C104.463 20.3512 104.897 19.777 105.459 19.3864C106.022 18.988 106.678 18.7887 107.428 18.7887C107.701 18.7887 107.94 18.8356 108.143 18.9294V23.277ZM114.881 15.7653C114.881 16.4684 114.623 17.0387 114.108 17.4762C113.6 17.9137 112.928 18.1325 112.092 18.1325C111.28 18.1325 110.612 17.9059 110.088 17.4528C109.573 16.9997 109.315 16.4372 109.315 15.7653C109.315 15.0778 109.565 14.5231 110.065 14.1012C110.573 13.6716 111.248 13.4567 112.092 13.4567C112.928 13.4567 113.6 13.6716 114.108 14.1012C114.623 14.5231 114.881 15.0778 114.881 15.7653ZM109.596 30.9997V18.9997H114.588V30.9997H109.596ZM124.784 30.9997V24.4489C124.784 23.7067 124.67 23.1755 124.444 22.8551C124.225 22.527 123.866 22.363 123.366 22.363C122.936 22.363 122.6 22.5309 122.358 22.8669C122.116 23.2028 121.994 23.6325 121.994 24.1559V30.9997H117.002V18.9997H121.994V20.8747H122.041C122.44 20.1872 122.975 19.6559 123.647 19.2809C124.319 18.8981 125.049 18.7067 125.838 18.7067C128.463 18.7067 129.776 20.363 129.776 23.6755V30.9997H124.784ZM139.162 30.9997V14.195H144.225V27.0387H150.014V30.9997H139.162ZM158.346 30.9997V29.1716H158.299C157.502 30.5856 156.284 31.2926 154.643 31.2926C153.51 31.2926 152.623 30.9567 151.983 30.2848C151.342 29.613 151.022 28.7145 151.022 27.5895C151.022 25.2301 152.471 23.863 155.369 23.488L158.346 23.1012C158.346 22.7106 158.17 22.3903 157.819 22.1403C157.467 21.8903 156.994 21.7653 156.401 21.7653C155.057 21.7653 153.639 22.1481 152.147 22.9137V19.6676C152.795 19.3864 153.608 19.1559 154.584 18.9762C155.561 18.7966 156.397 18.7067 157.092 18.7067C159.131 18.7067 160.608 19.1442 161.522 20.0192C162.444 20.8864 162.905 22.3395 162.905 24.3786V30.9997H158.346ZM155.393 26.9216C155.393 27.2497 155.494 27.5192 155.698 27.7301C155.909 27.9411 156.205 28.0466 156.588 28.0466C157.112 28.0466 157.534 27.8512 157.854 27.4606C158.182 27.07 158.346 26.57 158.346 25.9606V25.5036L156.659 25.738C155.815 25.8786 155.393 26.2731 155.393 26.9216ZM178.701 24.6364C178.701 25.9489 178.483 27.113 178.045 28.1286C177.616 29.1364 177.002 29.9176 176.205 30.4723C175.409 31.0192 174.506 31.2926 173.498 31.2926C172.725 31.2926 172.061 31.152 171.506 30.8708C170.959 30.5817 170.526 30.2106 170.205 29.7575H170.159V30.9997H165.166V13.2341H170.159V20.6286H170.205C170.596 20.0348 171.123 19.5661 171.787 19.2223C172.459 18.8786 173.198 18.7067 174.002 18.7067C175.518 18.7067 176.678 19.2106 177.483 20.2184C178.295 21.2262 178.701 22.6989 178.701 24.6364ZM173.639 24.7887C173.639 23.9841 173.483 23.3786 173.17 22.9723C172.866 22.5661 172.424 22.363 171.846 22.363C171.338 22.363 170.912 22.5778 170.569 23.0075C170.233 23.4294 170.065 23.9801 170.065 24.6598V25.3864C170.065 26.0739 170.217 26.6208 170.522 27.027C170.826 27.4333 171.237 27.6364 171.752 27.6364C172.354 27.6364 172.819 27.3903 173.147 26.8981C173.475 26.3981 173.639 25.695 173.639 24.7887ZM190.338 27.0153C190.338 28.3747 189.819 29.4294 188.78 30.1794C187.748 30.9216 186.307 31.2926 184.455 31.2926C183.916 31.2926 183.248 31.238 182.451 31.1286C181.662 31.0192 181.018 30.8864 180.518 30.7301V27.2262C181.994 27.8825 183.229 28.2106 184.221 28.2106C185.198 28.2106 185.686 27.9567 185.686 27.4489C185.686 27.238 185.573 27.0661 185.346 26.9333C185.119 26.7926 184.526 26.5622 183.565 26.2419C182.502 25.9059 181.729 25.4606 181.244 24.9059C180.76 24.3512 180.518 23.6286 180.518 22.738C180.518 21.4958 181.01 20.5153 181.994 19.7966C182.987 19.07 184.377 18.7067 186.166 18.7067C187.213 18.7067 188.323 18.8591 189.494 19.1637V22.527C189.002 22.3161 188.463 22.1403 187.877 21.9997C187.291 21.8591 186.799 21.7887 186.401 21.7887C186.073 21.7887 185.811 21.8434 185.616 21.9528C185.42 22.0622 185.323 22.2145 185.323 22.4098C185.323 22.6364 185.428 22.82 185.639 22.9606C185.85 23.1012 186.272 23.2692 186.905 23.4645C188.131 23.8239 189.01 24.2848 189.541 24.8473C190.073 25.4098 190.338 26.1325 190.338 27.0153Z" fill="#3F3D56"/>
<path d="M33.8694 30.9997H32.8694V31.9997H33.8694V30.9997ZM33.9515 18.9294L34.9501 18.9819L34.9504 18.9748L33.9515 18.9294ZM33.9866 18.1559L34.9856 18.2013L35.0331 17.1559H33.9866V18.1559ZM33.846 18.1559V17.1559H33.0176L32.8635 17.9699L33.846 18.1559ZM33.2718 20.8981L32.3043 20.6451L32.3023 20.6527L32.3005 20.6604L33.2718 20.8981ZM30.7991 30.9997V31.9997H31.5839L31.7705 31.2374L30.7991 30.9997ZM26.0413 30.9997L25.0734 31.2508L25.2676 31.9997H26.0413V30.9997ZM23.4515 21.0153L24.4194 20.7642L24.4169 20.7544L24.4141 20.7446L23.4515 21.0153ZM22.9007 18.1559L23.885 17.9795L23.7374 17.1559H22.9007V18.1559ZM22.7601 18.1559V17.1559H21.7175L21.7609 18.1976L22.7601 18.1559ZM22.9241 30.9997V31.9997H23.9241V30.9997H22.9241ZM18.4827 30.9997H17.4827V31.9997H18.4827V30.9997ZM18.4827 14.195V13.195H17.4827V14.195H18.4827ZM26.0648 14.195L27.0342 13.9498L26.8434 13.195H26.0648V14.195ZM28.3734 23.3239L27.4039 23.5691L27.4083 23.5866L27.4134 23.6039L28.3734 23.3239ZM28.5843 24.4723L27.5952 24.6194L27.5963 24.627L27.5975 24.6345L28.5843 24.4723ZM28.7601 25.7966L27.7629 25.8713L27.8323 26.7966H28.7601V25.7966ZM28.8304 25.7966V26.7966H29.7168L29.8232 25.9166L28.8304 25.7966ZM29.2405 23.277L28.2676 23.046L28.2627 23.0664L28.2588 23.087L29.2405 23.277ZM31.3968 14.195V13.195H30.6064L30.4238 13.964L31.3968 14.195ZM38.8616 14.195H39.8616V13.195H38.8616V14.195ZM38.8616 30.9997V31.9997H39.8616V30.9997H38.8616ZM34.8694 30.9997V21.7887H32.8694V30.9997H34.8694ZM34.8694 21.7887C34.8694 20.9421 34.8962 20.0068 34.9501 18.9819L32.9529 18.8768C32.8974 19.93 32.8694 20.901 32.8694 21.7887H34.8694ZM34.9504 18.9748L34.9856 18.2013L32.9877 18.1105L32.9525 18.884L34.9504 18.9748ZM33.9866 17.1559H33.846V19.1559H33.9866V17.1559ZM32.8635 17.9699C32.6132 19.2918 32.4274 20.1746 32.3043 20.6451L34.2392 21.1511C34.3818 20.606 34.5788 19.6607 34.8286 18.342L32.8635 17.9699ZM32.3005 20.6604L29.8278 30.7619L31.7705 31.2374L34.2431 21.1359L32.3005 20.6604ZM30.7991 29.9997H26.0413V31.9997H30.7991V29.9997ZM27.0093 30.7486L24.4194 20.7642L22.4835 21.2664L25.0734 31.2508L27.0093 30.7486ZM24.4141 20.7446C24.3607 20.5545 24.1876 19.6676 23.885 17.9795L21.9164 18.3324C22.2075 19.9567 22.4017 20.9761 22.4888 21.286L24.4141 20.7446ZM22.9007 17.1559H22.7601V19.1559H22.9007V17.1559ZM21.7609 18.1976C21.8706 20.8303 21.9241 22.4471 21.9241 23.0778H23.9241C23.9241 22.396 23.8683 20.7315 23.7592 18.1143L21.7609 18.1976ZM21.9241 23.0778V30.9997H23.9241V23.0778H21.9241ZM22.9241 29.9997H18.4827V31.9997H22.9241V29.9997ZM19.4827 30.9997V14.195H17.4827V30.9997H19.4827ZM18.4827 15.195H26.0648V13.195H18.4827V15.195ZM25.0953 14.4402L27.4039 23.5691L29.3428 23.0787L27.0342 13.9498L25.0953 14.4402ZM27.4134 23.6039C27.4458 23.715 27.5075 24.03 27.5952 24.6194L29.5734 24.3253C29.4892 23.7584 29.4103 23.3078 29.3334 23.0439L27.4134 23.6039ZM27.5975 24.6345C27.6898 25.1957 27.7427 25.6029 27.7629 25.8713L29.7573 25.7218C29.7305 25.3652 29.6663 24.8896 29.571 24.3101L27.5975 24.6345ZM28.7601 26.7966H28.8304V24.7966H28.7601V26.7966ZM29.8232 25.9166C29.9054 25.236 30.0378 24.4206 30.2223 23.467L28.2588 23.087C28.0683 24.071 27.9272 24.9353 27.8376 25.6765L29.8232 25.9166ZM30.2135 23.508L32.3697 14.426L30.4238 13.964L28.2676 23.046L30.2135 23.508ZM31.3968 15.195H38.8616V13.195H31.3968V15.195ZM37.8616 14.195V30.9997H39.8616V14.195H37.8616ZM38.8616 29.9997H33.8694V31.9997H38.8616V29.9997ZM48.3773 30.9997H47.3773V31.9997H48.3773V30.9997ZM48.3773 29.1716H49.3773V28.1716H48.3773V29.1716ZM48.3304 29.1716V28.1716H47.7461L47.4592 28.6806L48.3304 29.1716ZM45.4007 23.488L45.529 24.4797L45.5295 24.4796L45.4007 23.488ZM48.3773 23.1012L48.5061 24.0929L49.3773 23.9797V23.1012H48.3773ZM42.178 22.9137H41.178V24.5508L42.6345 23.8035L42.178 22.9137ZM42.178 19.6676L41.7801 18.7502L41.178 19.0114V19.6676H42.178ZM51.553 20.0192L50.8615 20.7416L50.8679 20.7476L51.553 20.0192ZM52.9359 30.9997V31.9997H53.9359V30.9997H52.9359ZM45.7288 27.7301L45.0085 28.4238L45.015 28.4306L45.0217 28.4373L45.7288 27.7301ZM47.8851 27.4606L47.1193 26.8174L47.1118 26.8265L47.8851 27.4606ZM48.3773 25.5036H49.3773V24.3551L48.2397 24.5131L48.3773 25.5036ZM46.6898 25.738L46.5522 24.7475L46.5387 24.7493L46.5254 24.7516L46.6898 25.738ZM49.3773 30.9997V29.1716H47.3773V30.9997H49.3773ZM48.3773 28.1716H48.3304V30.1716H48.3773V28.1716ZM47.4592 28.6806C46.8419 29.776 45.9586 30.2926 44.6741 30.2926V32.2926C46.6709 32.2926 48.2251 31.3953 49.2016 29.6625L47.4592 28.6806ZM44.6741 30.2926C43.7502 30.2926 43.1492 30.0264 42.7377 29.5948L41.2902 30.9749C42.16 31.8871 43.3325 32.2926 44.6741 32.2926V30.2926ZM42.7377 29.5948C42.3106 29.1468 42.053 28.5152 42.053 27.5895H40.053C40.053 28.9138 40.4361 30.0791 41.2902 30.9749L42.7377 29.5948ZM42.053 27.5895C42.053 26.6301 42.3386 25.982 42.8262 25.522C43.3407 25.0366 44.1957 24.6522 45.529 24.4797L45.2724 22.4962C43.7073 22.6987 42.3884 23.1855 41.4537 24.0672C40.4921 24.9744 40.053 26.1895 40.053 27.5895H42.053ZM45.5295 24.4796L48.5061 24.0929L48.2484 22.1096L45.2719 22.4963L45.5295 24.4796ZM49.3773 23.1012C49.3773 22.3495 49.0127 21.7401 48.4294 21.3253L47.2704 22.9553C47.3453 23.0085 47.3654 23.0431 47.3688 23.0491C47.3709 23.0531 47.3723 23.0565 47.3735 23.0615C47.3748 23.0668 47.3773 23.0791 47.3773 23.1012H49.3773ZM48.4294 21.3253C47.8556 20.9173 47.1571 20.7653 46.4319 20.7653V22.7653C46.8943 22.7653 47.1411 22.8634 47.2704 22.9553L48.4294 21.3253ZM46.4319 20.7653C44.8949 20.7653 43.3207 21.2035 41.7215 22.024L42.6345 23.8035C44.0198 23.0927 45.2815 22.7653 46.4319 22.7653V20.7653ZM43.178 22.9137V19.6676H41.178V22.9137H43.178ZM42.576 20.5851C43.1332 20.3434 43.867 20.1308 44.7965 19.9597L44.4346 17.9928C43.4109 18.1811 42.5198 18.4294 41.7801 18.7502L42.576 20.5851ZM44.7965 19.9597C45.7364 19.7868 46.5084 19.7067 47.1234 19.7067V17.7067C46.3477 17.7067 45.4478 17.8063 44.4346 17.9928L44.7965 19.9597ZM47.1234 19.7067C49.0549 19.7067 50.2194 20.1269 50.8615 20.7416L52.2445 19.2968C51.0586 18.1615 49.2699 17.7067 47.1234 17.7067V19.7067ZM50.8679 20.7476C51.4948 21.3373 51.9359 22.4521 51.9359 24.3786H53.9359C53.9359 22.227 53.455 20.4355 52.2382 19.2908L50.8679 20.7476ZM51.9359 24.3786V30.9997H53.9359V24.3786H51.9359ZM52.9359 29.9997H48.3773V31.9997H52.9359V29.9997ZM44.4241 26.9216C44.4241 27.4745 44.6037 28.0035 45.0085 28.4238L46.4491 27.0365C46.4402 27.0272 46.4381 27.0227 46.4361 27.0172C46.4332 27.0097 46.4241 26.9818 46.4241 26.9216H44.4241ZM45.0217 28.4373C45.4693 28.8849 46.0501 29.0466 46.6194 29.0466V27.0466C46.5184 27.0466 46.4651 27.0325 46.4444 27.0252C46.428 27.0193 46.4304 27.0175 46.4359 27.023L45.0217 28.4373ZM46.6194 29.0466C47.4299 29.0466 48.1403 28.7265 48.6583 28.0947L47.1118 26.8265C46.9892 26.976 46.8558 27.0466 46.6194 27.0466V29.0466ZM48.6508 28.1038C49.1584 27.4995 49.3773 26.7575 49.3773 25.9606H47.3773C47.3773 26.3825 47.268 26.6405 47.1194 26.8174L48.6508 28.1038ZM49.3773 25.9606V25.5036H47.3773V25.9606H49.3773ZM48.2397 24.5131L46.5522 24.7475L46.8273 26.7285L48.5148 26.4941L48.2397 24.5131ZM46.5254 24.7516C45.9973 24.8396 45.466 25.0269 45.0575 25.4089C44.6185 25.8195 44.4241 26.358 44.4241 26.9216H46.4241C46.4241 26.8686 46.4325 26.8523 46.4303 26.8578C46.427 26.8659 46.4214 26.8718 46.4236 26.8697C46.4369 26.8572 46.5385 26.777 46.8542 26.7244L46.5254 24.7516ZM62.9788 30.9997H61.9788V31.9997H62.9788V30.9997ZM62.639 22.8551L61.8069 23.4098L61.8146 23.4213L61.8226 23.4326L62.639 22.8551ZM60.1898 30.9997V31.9997H61.1898V30.9997H60.1898ZM55.1976 30.9997H54.1976V31.9997H55.1976V30.9997ZM55.1976 18.9997V17.9997H54.1976V18.9997H55.1976ZM60.1898 18.9997H61.1898V17.9997H60.1898V18.9997ZM60.1898 20.8747H59.1898V21.8747H60.1898V20.8747ZM60.2366 20.8747V21.8747H60.8129L61.1018 21.3761L60.2366 20.8747ZM61.8421 19.2809L62.3295 20.1542L62.3372 20.1498L61.8421 19.2809ZM67.971 30.9997V31.9997H68.971V30.9997H67.971ZM63.9788 30.9997V24.4489H61.9788V30.9997H63.9788ZM63.9788 24.4489C63.9788 23.6574 63.8681 22.8612 63.4554 22.2777L61.8226 23.4326C61.863 23.4898 61.9788 23.7561 61.9788 24.4489H63.9788ZM63.471 22.3004C63.017 21.6194 62.2942 21.363 61.5609 21.363V23.363C61.7044 23.363 61.7705 23.3868 61.7901 23.3957C61.7951 23.398 61.7978 23.3996 61.799 23.4003C61.7996 23.4007 61.8 23.401 61.8001 23.4011C61.8002 23.4012 61.8002 23.4012 61.8003 23.4012C61.8003 23.4012 61.8003 23.4012 61.8003 23.4012C61.8003 23.4012 61.8003 23.4013 61.8003 23.4013C61.8003 23.4013 61.8004 23.4013 61.8004 23.4014C61.8005 23.4015 61.8008 23.4018 61.8013 23.4023C61.8021 23.4032 61.804 23.4055 61.8069 23.4098L63.471 22.3004ZM61.5609 21.363C60.824 21.363 60.1802 21.6741 59.7419 22.2821L61.3642 23.4517C61.4007 23.4011 61.4248 23.3879 61.4338 23.3834C61.4442 23.3782 61.4788 23.363 61.5609 23.363V21.363ZM59.7419 22.2821C59.3479 22.8285 59.1898 23.4783 59.1898 24.1559H61.1898C61.1898 23.7866 61.2738 23.5771 61.3642 23.4517L59.7419 22.2821ZM59.1898 24.1559V30.9997H61.1898V24.1559H59.1898ZM60.1898 29.9997H55.1976V31.9997H60.1898V29.9997ZM56.1976 30.9997V18.9997H54.1976V30.9997H56.1976ZM55.1976 19.9997H60.1898V17.9997H55.1976V19.9997ZM59.1898 18.9997V20.8747H61.1898V18.9997H59.1898ZM60.1898 21.8747H60.2366V19.8747H60.1898V21.8747ZM61.1018 21.3761C61.4132 20.8389 61.82 20.4385 62.3295 20.1541L61.3547 18.4077C60.5205 18.8734 59.857 19.5354 59.3714 20.3733L61.1018 21.3761ZM62.3372 20.1498C62.855 19.8547 63.4143 19.7067 64.0335 19.7067V17.7067C63.0746 17.7067 62.173 17.9415 61.347 18.4121L62.3372 20.1498ZM64.0335 19.7067C65.122 19.7067 65.7817 20.0385 66.2029 20.57C66.6592 21.1458 66.971 22.1244 66.971 23.6755H68.971C68.971 21.914 68.6265 20.4082 67.7704 19.3278C66.8791 18.2031 65.57 17.7067 64.0335 17.7067V19.7067ZM66.971 23.6755V30.9997H68.971V23.6755H66.971ZM67.971 29.9997H62.9788V31.9997H67.971V29.9997ZM78.2366 30.9997H77.2366V31.9997H78.2366V30.9997ZM78.2366 29.6051H79.2366V28.6051H78.2366V29.6051ZM78.1898 29.6051V28.6051H77.6942L77.3941 28.9995L78.1898 29.6051ZM76.6312 30.8473L77.0516 31.7547L77.0607 31.7504L76.6312 30.8473ZM72.0257 30.5426L71.4807 31.3811L71.4866 31.3849L72.0257 30.5426ZM70.2679 28.4216L69.3467 28.8107L69.3496 28.8174L70.2679 28.4216ZM76.5023 18.9176L76.1807 19.8645L76.186 19.8663L76.5023 18.9176ZM77.5921 19.4919L76.9699 20.2747L76.9809 20.2834L76.9921 20.2919L77.5921 19.4919ZM78.1898 20.195L77.2509 20.5392L77.4913 21.195H78.1898V20.195ZM78.2366 20.195V21.195H79.2366V20.195H78.2366ZM78.2366 13.2341V12.2341H77.2366V13.2341H78.2366ZM83.2288 13.2341H84.2288V12.2341H83.2288V13.2341ZM83.2288 30.9997V31.9997H84.2288V30.9997H83.2288ZM77.8616 22.9606L77.0747 23.5778L77.0823 23.5872L77.8616 22.9606ZM75.2601 23.113L74.436 22.5464L74.4341 22.5492L75.2601 23.113ZM77.8382 26.9567L77.03 26.3677L77.0283 26.3702L77.8382 26.9567ZM79.2366 30.9997V29.6051H77.2366V30.9997H79.2366ZM78.2366 28.6051H78.1898V30.6051H78.2366V28.6051ZM77.3941 28.9995C77.0997 29.3862 76.7098 29.7026 76.2017 29.9443L77.0607 31.7504C77.8338 31.3827 78.483 30.871 78.9855 30.2108L77.3941 28.9995ZM76.2107 29.94C75.6847 30.1838 75.1947 30.2926 74.7327 30.2926V32.2926C75.5207 32.2926 76.2964 32.1046 77.0516 31.7546L76.2107 29.94ZM74.7327 30.2926C73.8799 30.2926 73.1687 30.0869 72.5648 29.7004L71.4866 31.3849C72.4452 31.9984 73.5387 32.2926 74.7327 32.2926V30.2926ZM72.5707 29.7042C71.9648 29.3104 71.5036 28.7621 71.1862 28.0257L69.3496 28.8174C69.8134 29.8935 70.5241 30.7593 71.4807 31.3811L72.5707 29.7042ZM71.1891 28.0324C70.8697 27.2764 70.6937 26.3442 70.6937 25.2106H68.6937C68.6937 26.5458 68.9004 27.7542 69.3467 28.8107L71.1891 28.0324ZM70.6937 25.2106C70.6937 24.0588 70.9017 23.0787 71.2907 22.248L69.4794 21.3998C68.9466 22.5378 68.6937 23.8156 68.6937 25.2106H70.6937ZM71.2907 22.248C71.6801 21.4164 72.2109 20.8002 72.8778 20.3639L71.7829 18.6902C70.778 19.3476 70.0119 20.2626 69.4794 21.3998L71.2907 22.248ZM72.8778 20.3639C73.5443 19.9279 74.29 19.7067 75.1429 19.7067V17.7067C73.9176 17.7067 72.7884 18.0324 71.7829 18.6902L72.8778 20.3639ZM75.1429 19.7067C75.5393 19.7067 75.8823 19.7632 76.1807 19.8645L76.8238 17.9708C76.2941 17.7909 75.7309 17.7067 75.1429 17.7067V19.7067ZM76.186 19.8663C76.5126 19.9752 76.7687 20.1148 76.9699 20.2747L78.2143 18.709C77.8061 18.3845 77.3357 18.1414 76.8185 17.969L76.186 19.8663ZM76.9921 20.2919C77.104 20.3758 77.1734 20.4433 77.214 20.4911C77.2543 20.5385 77.2567 20.5552 77.2509 20.5392L79.1286 19.8507C78.9484 19.3593 78.5789 18.9819 78.1921 18.6919L76.9921 20.2919ZM78.1898 21.195H78.2366V19.195H78.1898V21.195ZM79.2366 20.195V13.2341H77.2366V20.195H79.2366ZM78.2366 14.2341H83.2288V12.2341H78.2366V14.2341ZM82.2288 13.2341V30.9997H84.2288V13.2341H82.2288ZM83.2288 29.9997H78.2366V31.9997H83.2288V29.9997ZM79.3421 24.6364C79.3421 23.7807 79.1522 22.9699 78.641 22.3341L77.0823 23.5872C77.2117 23.7482 77.3421 24.0546 77.3421 24.6364H79.3421ZM78.6485 22.3435C78.1327 21.6859 77.4076 21.363 76.5843 21.363V23.363C76.8391 23.363 76.9655 23.4385 77.0748 23.5778L78.6485 22.3435ZM76.5843 21.363C75.6705 21.363 74.939 21.8148 74.436 22.5464L76.0841 23.6795C76.2686 23.4111 76.4199 23.363 76.5843 23.363V21.363ZM74.4341 22.5492C73.9485 23.2608 73.7562 24.14 73.7562 25.0934H75.7562C75.7562 24.3906 75.8998 23.9495 76.086 23.6767L74.4341 22.5492ZM73.7562 25.0934C73.7562 26.0254 73.9116 26.9018 74.373 27.5693C74.8806 28.3036 75.6519 28.6364 76.514 28.6364V26.6364C76.2041 26.6364 76.0966 26.5454 76.0182 26.432C75.8937 26.2519 75.7562 25.8568 75.7562 25.0934H73.7562ZM76.514 28.6364C77.3926 28.6364 78.1339 28.2534 78.6481 27.5432L77.0283 26.3702C76.8863 26.5663 76.7447 26.6364 76.514 26.6364V28.6364ZM78.6463 27.5457C79.1576 26.8442 79.3421 25.9333 79.3421 24.9528H77.3421C77.3421 25.7223 77.1907 26.1473 77.0301 26.3677L78.6463 27.5457ZM79.3421 24.9528V24.6364H77.3421V24.9528H79.3421ZM92.2991 30.9997H91.2991V31.9997H92.2991V30.9997ZM92.2991 29.1716H93.2991V28.1716H92.2991V29.1716ZM92.2523 29.1716V28.1716H91.6679L91.3811 28.6806L92.2523 29.1716ZM89.3226 23.488L89.4509 24.4797L89.4514 24.4796L89.3226 23.488ZM92.2991 23.1012L92.428 24.0929L93.2991 23.9797V23.1012H92.2991ZM86.0999 22.9137H85.0999V24.5508L86.5564 23.8035L86.0999 22.9137ZM86.0999 19.6676L85.702 18.7502L85.0999 19.0114V19.6676H86.0999ZM95.4749 20.0192L94.7834 20.7416L94.7897 20.7476L95.4749 20.0192ZM96.8577 30.9997V31.9997H97.8577V30.9997H96.8577ZM89.6507 27.7301L88.9304 28.4238L88.9369 28.4306L88.9436 28.4373L89.6507 27.7301ZM91.8069 27.4606L91.0412 26.8174L91.0337 26.8265L91.8069 27.4606ZM92.2991 25.5036H93.2991V24.3551L92.1616 24.5131L92.2991 25.5036ZM90.6116 25.738L90.4741 24.7475L90.4606 24.7493L90.4472 24.7516L90.6116 25.738ZM93.2991 30.9997V29.1716H91.2991V30.9997H93.2991ZM92.2991 28.1716H92.2523V30.1716H92.2991V28.1716ZM91.3811 28.6806C90.7638 29.776 89.8805 30.2926 88.596 30.2926V32.2926C90.5928 32.2926 92.147 31.3953 93.1235 29.6625L91.3811 28.6806ZM88.596 30.2926C87.6721 30.2926 87.0711 30.0264 86.6596 29.5948L85.2121 30.9749C86.0818 31.8871 87.2543 32.2926 88.596 32.2926V30.2926ZM86.6596 29.5948C86.2325 29.1468 85.9749 28.5152 85.9749 27.5895H83.9749C83.9749 28.9138 84.358 30.0791 85.2121 30.9749L86.6596 29.5948ZM85.9749 27.5895C85.9749 26.6301 86.2605 25.982 86.748 25.522C87.2626 25.0366 88.1176 24.6522 89.4509 24.4797L89.1943 22.4962C87.6291 22.6987 86.3103 23.1855 85.3756 24.0672C84.4139 24.9744 83.9749 26.1895 83.9749 27.5895H85.9749ZM89.4514 24.4796L92.428 24.0929L92.1703 22.1096L89.1937 22.4963L89.4514 24.4796ZM93.2991 23.1012C93.2991 22.3495 92.9346 21.7401 92.3513 21.3253L91.1923 22.9553C91.2671 23.0085 91.2873 23.0431 91.2906 23.0491C91.2928 23.0531 91.2942 23.0565 91.2954 23.0615C91.2967 23.0668 91.2991 23.0791 91.2991 23.1012H93.2991ZM92.3513 21.3253C91.7774 20.9173 91.079 20.7653 90.3538 20.7653V22.7653C90.8162 22.7653 91.063 22.8634 91.1923 22.9553L92.3513 21.3253ZM90.3538 20.7653C88.8168 20.7653 87.2425 21.2035 85.6434 22.024L86.5564 23.8035C87.9417 23.0927 89.2034 22.7653 90.3538 22.7653V20.7653ZM87.0999 22.9137V19.6676H85.0999V22.9137H87.0999ZM86.4978 20.5851C87.055 20.3434 87.7889 20.1308 88.7184 19.9597L88.3565 17.9928C87.3328 18.1811 86.4417 18.4294 85.702 18.7502L86.4978 20.5851ZM88.7184 19.9597C89.6583 19.7868 90.4302 19.7067 91.0452 19.7067V17.7067C90.2696 17.7067 89.3697 17.8063 88.3565 17.9928L88.7184 19.9597ZM91.0452 19.7067C92.9768 19.7067 94.1413 20.1269 94.7834 20.7416L96.1664 19.2968C94.9804 18.1615 93.1918 17.7067 91.0452 17.7067V19.7067ZM94.7897 20.7476C95.4167 21.3373 95.8577 22.4521 95.8577 24.3786H97.8577C97.8577 22.227 97.3769 20.4355 96.1601 19.2908L94.7897 20.7476ZM95.8577 24.3786V30.9997H97.8577V24.3786H95.8577ZM96.8577 29.9997H92.2991V31.9997H96.8577V29.9997ZM88.346 26.9216C88.346 27.4745 88.5256 28.0035 88.9304 28.4238L90.371 27.0365C90.3621 27.0272 90.36 27.0227 90.3579 27.0172C90.3551 27.0097 90.346 26.9818 90.346 26.9216H88.346ZM88.9436 28.4373C89.3912 28.8849 89.9719 29.0466 90.5413 29.0466V27.0466C90.4402 27.0466 90.387 27.0325 90.3663 27.0252C90.3499 27.0193 90.3523 27.0175 90.3578 27.023L88.9436 28.4373ZM90.5413 29.0466C91.3518 29.0466 92.0622 28.7265 92.5802 28.0947L91.0337 26.8265C90.9111 26.976 90.7777 27.0466 90.5413 27.0466V29.0466ZM92.5726 28.1038C93.0803 27.4995 93.2991 26.7575 93.2991 25.9606H91.2991C91.2991 26.3825 91.1899 26.6405 91.0412 26.8174L92.5726 28.1038ZM93.2991 25.9606V25.5036H91.2991V25.9606H93.2991ZM92.1616 24.5131L90.4741 24.7475L90.7492 26.7285L92.4367 26.4941L92.1616 24.5131ZM90.4472 24.7516C89.9191 24.8396 89.3879 25.0269 88.9794 25.4089C88.5404 25.8195 88.346 26.358 88.346 26.9216H90.346C90.346 26.8686 90.3544 26.8523 90.3521 26.8578C90.3489 26.8659 90.3433 26.8718 90.3455 26.8697C90.3588 26.8572 90.4604 26.777 90.776 26.7244L90.4472 24.7516ZM108.143 23.277L107.726 24.1861L109.143 24.8354V23.277H108.143ZM104.112 30.9997V31.9997H105.112V30.9997H104.112ZM99.1194 30.9997H98.1194V31.9997H99.1194V30.9997ZM99.1194 18.9997V17.9997H98.1194V18.9997H99.1194ZM104.112 18.9997H105.112V17.9997H104.112V18.9997ZM104.112 21.1091H103.112V22.1091H104.112V21.1091ZM104.159 21.1091V22.1091H104.834L105.086 21.4821L104.159 21.1091ZM105.459 19.3864L106.03 20.2078L106.037 20.2024L105.459 19.3864ZM108.143 18.9294H109.143V18.2895L108.562 18.0214L108.143 18.9294ZM108.56 22.368C108.281 22.2402 107.95 22.1437 107.596 22.0659L107.167 24.0194C107.453 24.0822 107.63 24.1419 107.726 24.1861L108.56 22.368ZM107.596 22.0659C107.239 21.9876 106.895 21.9372 106.584 21.9372V23.9372C106.695 23.9372 106.883 23.957 107.167 24.0194L107.596 22.0659ZM106.584 21.9372C105.565 21.9372 104.63 22.2386 103.973 22.9979C103.341 23.7294 103.112 24.722 103.112 25.7966H105.112C105.112 24.9648 105.295 24.5277 105.486 24.3061C105.654 24.1123 105.955 23.9372 106.584 23.9372V21.9372ZM103.112 25.7966V30.9997H105.112V25.7966H103.112ZM104.112 29.9997H99.1194V31.9997H104.112V29.9997ZM100.119 30.9997V18.9997H98.1194V30.9997H100.119ZM99.1194 19.9997H104.112V17.9997H99.1194V19.9997ZM103.112 18.9997V21.1091H105.112V18.9997H103.112ZM104.112 22.1091H104.159V20.1091H104.112V22.1091ZM105.086 21.4821C105.332 20.87 105.656 20.4671 106.03 20.2078L104.889 18.565C104.137 19.087 103.594 19.8325 103.231 20.736L105.086 21.4821ZM106.037 20.2024C106.416 19.9343 106.866 19.7887 107.428 19.7887V17.7887C106.49 17.7887 105.628 18.0416 104.881 18.5704L106.037 20.2024ZM107.428 19.7887C107.588 19.7887 107.678 19.8161 107.724 19.8373L108.562 18.0214C108.202 17.8551 107.815 17.7887 107.428 17.7887V19.7887ZM107.143 18.9294V23.277H109.143V18.9294H107.143ZM114.108 17.4762L113.461 16.7137L113.455 16.7186L114.108 17.4762ZM110.088 17.4528L109.428 18.204L109.434 18.2089L110.088 17.4528ZM110.065 14.1012L110.71 14.8655L110.711 14.8646L110.065 14.1012ZM114.108 14.1012L113.462 14.8646L113.468 14.87L113.474 14.8752L114.108 14.1012ZM109.596 30.9997H108.596V31.9997H109.596V30.9997ZM109.596 18.9997V17.9997H108.596V18.9997H109.596ZM114.588 18.9997H115.588V17.9997H114.588V18.9997ZM114.588 30.9997V31.9997H115.588V30.9997H114.588ZM113.881 15.7653C113.881 16.1882 113.742 16.4747 113.461 16.7137L114.755 18.2388C115.504 17.6027 115.881 16.7487 115.881 15.7653H113.881ZM113.455 16.7186C113.17 16.964 112.75 17.1325 112.092 17.1325V19.1325C113.106 19.1325 114.03 18.8635 114.76 18.2339L113.455 16.7186ZM112.092 17.1325C111.476 17.1325 111.054 16.9659 110.743 16.6967L109.434 18.2089C110.17 18.8459 111.083 19.1325 112.092 19.1325V17.1325ZM110.748 16.7016C110.443 16.4337 110.315 16.1425 110.315 15.7653H108.315C108.315 16.7319 108.702 17.5657 109.428 18.204L110.748 16.7016ZM110.315 15.7653C110.315 15.3553 110.448 15.0866 110.71 14.8655L109.42 13.337C108.682 13.9596 108.315 14.8003 108.315 15.7653H110.315ZM110.711 14.8646C110.994 14.6251 111.42 14.4567 112.092 14.4567V12.4567C111.077 12.4567 110.151 12.718 109.419 13.3379L110.711 14.8646ZM112.092 14.4567C112.754 14.4567 113.177 14.6237 113.462 14.8646L114.754 13.3379C114.023 12.7194 113.102 12.4567 112.092 12.4567V14.4567ZM113.474 14.8752C113.75 15.1002 113.881 15.3667 113.881 15.7653H115.881C115.881 14.7889 115.497 13.946 114.741 13.3273L113.474 14.8752ZM110.596 30.9997V18.9997H108.596V30.9997H110.596ZM109.596 19.9997H114.588V17.9997H109.596V19.9997ZM113.588 18.9997V30.9997H115.588V18.9997H113.588ZM114.588 29.9997H109.596V31.9997H114.588V29.9997ZM124.784 30.9997H123.784V31.9997H124.784V30.9997ZM124.444 22.8551L123.612 23.4098L123.619 23.4213L123.627 23.4326L124.444 22.8551ZM121.994 30.9997V31.9997H122.994V30.9997H121.994ZM117.002 30.9997H116.002V31.9997H117.002V30.9997ZM117.002 18.9997V17.9997H116.002V18.9997H117.002ZM121.994 18.9997H122.994V17.9997H121.994V18.9997ZM121.994 20.8747H120.994V21.8747H121.994V20.8747ZM122.041 20.8747V21.8747H122.618L122.907 21.3761L122.041 20.8747ZM123.647 19.2809L124.134 20.1542L124.142 20.1498L123.647 19.2809ZM129.776 30.9997V31.9997H130.776V30.9997H129.776ZM125.784 30.9997V24.4489H123.784V30.9997H125.784ZM125.784 24.4489C125.784 23.6574 125.673 22.8612 125.26 22.2777L123.627 23.4326C123.668 23.4898 123.784 23.7561 123.784 24.4489H125.784ZM125.276 22.3004C124.822 21.6194 124.099 21.363 123.366 21.363V23.363C123.509 23.363 123.575 23.3868 123.595 23.3957C123.6 23.398 123.603 23.3996 123.604 23.4003C123.604 23.4007 123.605 23.401 123.605 23.4011C123.605 23.4012 123.605 23.4012 123.605 23.4012C123.605 23.4012 123.605 23.4012 123.605 23.4012C123.605 23.4012 123.605 23.4013 123.605 23.4013C123.605 23.4013 123.605 23.4013 123.605 23.4014C123.605 23.4015 123.606 23.4018 123.606 23.4023C123.607 23.4032 123.609 23.4055 123.612 23.4098L125.276 22.3004ZM123.366 21.363C122.629 21.363 121.985 21.6741 121.547 22.2821L123.169 23.4517C123.205 23.4011 123.23 23.3879 123.239 23.3834C123.249 23.3782 123.283 23.363 123.366 23.363V21.363ZM121.547 22.2821C121.153 22.8285 120.994 23.4783 120.994 24.1559H122.994C122.994 23.7866 123.079 23.5771 123.169 23.4517L121.547 22.2821ZM120.994 24.1559V30.9997H122.994V24.1559H120.994ZM121.994 29.9997H117.002V31.9997H121.994V29.9997ZM118.002 30.9997V18.9997H116.002V30.9997H118.002ZM117.002 19.9997H121.994V17.9997H117.002V19.9997ZM120.994 18.9997V20.8747H122.994V18.9997H120.994ZM121.994 21.8747H122.041V19.8747H121.994V21.8747ZM122.907 21.3761C123.218 20.8389 123.625 20.4385 124.134 20.1541L123.159 18.4077C122.325 18.8734 121.662 19.5354 121.176 20.3733L122.907 21.3761ZM124.142 20.1498C124.66 19.8547 125.219 19.7067 125.838 19.7067V17.7067C124.879 17.7067 123.978 17.9415 123.152 18.4121L124.142 20.1498ZM125.838 19.7067C126.927 19.7067 127.586 20.0385 128.008 20.57C128.464 21.1458 128.776 22.1244 128.776 23.6755H130.776C130.776 21.914 130.431 20.4082 129.575 19.3278C128.684 18.2031 127.375 17.7067 125.838 17.7067V19.7067ZM128.776 23.6755V30.9997H130.776V23.6755H128.776ZM129.776 29.9997H124.784V31.9997H129.776V29.9997ZM139.162 30.9997H138.162V31.9997H139.162V30.9997ZM139.162 14.195V13.195H138.162V14.195H139.162ZM144.225 14.195H145.225V13.195H144.225V14.195ZM144.225 27.0387H143.225V28.0387H144.225V27.0387ZM150.014 27.0387H151.014V26.0387H150.014V27.0387ZM150.014 30.9997V31.9997H151.014V30.9997H150.014ZM140.162 30.9997V14.195H138.162V30.9997H140.162ZM139.162 15.195H144.225V13.195H139.162V15.195ZM143.225 14.195V27.0387H145.225V14.195H143.225ZM144.225 28.0387H150.014V26.0387H144.225V28.0387ZM149.014 27.0387V30.9997H151.014V27.0387H149.014ZM150.014 29.9997H139.162V31.9997H150.014V29.9997ZM158.346 30.9997H157.346V31.9997H158.346V30.9997ZM158.346 29.1716H159.346V28.1716H158.346V29.1716ZM158.299 29.1716V28.1716H157.715L157.428 28.6806L158.299 29.1716ZM155.369 23.488L155.498 24.4797L155.498 24.4796L155.369 23.488ZM158.346 23.1012L158.475 24.0929L159.346 23.9797V23.1012H158.346ZM152.147 22.9137H151.147V24.5508L152.603 23.8035L152.147 22.9137ZM152.147 19.6676L151.749 18.7502L151.147 19.0114V19.6676H152.147ZM161.522 20.0192L160.83 20.7416L160.837 20.7476L161.522 20.0192ZM162.905 30.9997V31.9997H163.905V30.9997H162.905ZM155.698 27.7301L154.977 28.4238L154.984 28.4306L154.99 28.4373L155.698 27.7301ZM157.854 27.4606L157.088 26.8174L157.081 26.8265L157.854 27.4606ZM158.346 25.5036H159.346V24.3551L158.208 24.5131L158.346 25.5036ZM156.659 25.738L156.521 24.7475L156.507 24.7493L156.494 24.7516L156.659 25.738ZM159.346 30.9997V29.1716H157.346V30.9997H159.346ZM158.346 28.1716H158.299V30.1716H158.346V28.1716ZM157.428 28.6806C156.811 29.776 155.927 30.2926 154.643 30.2926V32.2926C156.64 32.2926 158.194 31.3953 159.17 29.6625L157.428 28.6806ZM154.643 30.2926C153.719 30.2926 153.118 30.0264 152.706 29.5948L151.259 30.9749C152.129 31.8871 153.301 32.2926 154.643 32.2926V30.2926ZM152.706 29.5948C152.279 29.1468 152.022 28.5152 152.022 27.5895H150.022C150.022 28.9138 150.405 30.0791 151.259 30.9749L152.706 29.5948ZM152.022 27.5895C152.022 26.6301 152.307 25.982 152.795 25.522C153.309 25.0366 154.164 24.6522 155.498 24.4797L155.241 22.4962C153.676 22.6987 152.357 23.1855 151.422 24.0672C150.461 24.9744 150.022 26.1895 150.022 27.5895H152.022ZM155.498 24.4796L158.475 24.0929L158.217 22.1096L155.241 22.4963L155.498 24.4796ZM159.346 23.1012C159.346 22.3495 158.981 21.7401 158.398 21.3253L157.239 22.9553C157.314 23.0085 157.334 23.0431 157.338 23.0491C157.34 23.0531 157.341 23.0565 157.342 23.0615C157.344 23.0668 157.346 23.0791 157.346 23.1012H159.346ZM158.398 21.3253C157.824 20.9173 157.126 20.7653 156.401 20.7653V22.7653C156.863 22.7653 157.11 22.8634 157.239 22.9553L158.398 21.3253ZM156.401 20.7653C154.864 20.7653 153.289 21.2035 151.69 22.024L152.603 23.8035C153.989 23.0927 155.25 22.7653 156.401 22.7653V20.7653ZM153.147 22.9137V19.6676H151.147V22.9137H153.147ZM152.545 20.5851C153.102 20.3434 153.836 20.1308 154.765 19.9597L154.403 17.9928C153.38 18.1811 152.489 18.4294 151.749 18.7502L152.545 20.5851ZM154.765 19.9597C155.705 19.7868 156.477 19.7067 157.092 19.7067V17.7067C156.316 17.7067 155.417 17.8063 154.403 17.9928L154.765 19.9597ZM157.092 19.7067C159.024 19.7067 160.188 20.1269 160.83 20.7416L162.213 19.2968C161.027 18.1615 159.239 17.7067 157.092 17.7067V19.7067ZM160.837 20.7476C161.464 21.3373 161.905 22.4521 161.905 24.3786H163.905C163.905 22.227 163.424 20.4355 162.207 19.2908L160.837 20.7476ZM161.905 24.3786V30.9997H163.905V24.3786H161.905ZM162.905 29.9997H158.346V31.9997H162.905V29.9997ZM154.393 26.9216C154.393 27.4745 154.572 28.0035 154.977 28.4238L156.418 27.0365C156.409 27.0272 156.407 27.0227 156.405 27.0172C156.402 27.0097 156.393 26.9818 156.393 26.9216H154.393ZM154.99 28.4373C155.438 28.8849 156.019 29.0466 156.588 29.0466V27.0466C156.487 27.0466 156.434 27.0325 156.413 27.0252C156.397 27.0193 156.399 27.0175 156.405 27.023L154.99 28.4373ZM156.588 29.0466C157.399 29.0466 158.109 28.7265 158.627 28.0947L157.081 26.8265C156.958 26.976 156.825 27.0466 156.588 27.0466V29.0466ZM158.62 28.1038C159.127 27.4995 159.346 26.7575 159.346 25.9606H157.346C157.346 26.3825 157.237 26.6405 157.088 26.8174L158.62 28.1038ZM159.346 25.9606V25.5036H157.346V25.9606H159.346ZM158.208 24.5131L156.521 24.7475L156.796 26.7285L158.484 26.4941L158.208 24.5131ZM156.494 24.7516C155.966 24.8396 155.435 25.0269 155.026 25.4089C154.587 25.8195 154.393 26.358 154.393 26.9216H156.393C156.393 26.8686 156.401 26.8523 156.399 26.8578C156.396 26.8659 156.39 26.8718 156.392 26.8697C156.406 26.8572 156.507 26.777 156.823 26.7244L156.494 24.7516ZM178.045 28.1286L177.127 27.733L177.125 27.7364L178.045 28.1286ZM176.205 30.4723L176.771 31.2969L176.777 31.2931L176.205 30.4723ZM171.506 30.8708L171.039 31.7549L171.046 31.7588L171.054 31.7627L171.506 30.8708ZM170.205 29.7575L171.022 29.1803L170.723 28.7575H170.205V29.7575ZM170.159 29.7575V28.7575H169.159V29.7575H170.159ZM170.159 30.9997V31.9997H171.159V30.9997H170.159ZM165.166 30.9997H164.166V31.9997H165.166V30.9997ZM165.166 13.2341V12.2341H164.166V13.2341H165.166ZM170.159 13.2341H171.159V12.2341H170.159V13.2341ZM170.159 20.6286H169.159V21.6286H170.159V20.6286ZM170.205 20.6286V21.6286H170.744L171.041 21.1782L170.205 20.6286ZM171.787 19.2223L171.332 18.3321L171.328 18.3343L171.787 19.2223ZM177.483 20.2184L176.701 20.8424L176.704 20.8461L177.483 20.2184ZM173.17 22.9723L172.37 23.5724L172.378 23.582L173.17 22.9723ZM170.569 23.0075L169.788 22.3828L169.786 22.3846L170.569 23.0075ZM173.147 26.8981L173.979 27.4528L173.983 27.4468L173.147 26.8981ZM177.701 24.6364C177.701 25.8379 177.501 26.8634 177.127 27.733L178.964 28.5242C179.464 27.3625 179.701 26.0599 179.701 24.6364H177.701ZM177.125 27.7364C176.76 28.5942 176.258 29.2175 175.634 29.6516L176.777 31.2931C177.747 30.6178 178.471 29.6786 178.965 28.5208L177.125 27.7364ZM175.64 29.6478C175.017 30.0753 174.313 30.2926 173.498 30.2926V32.2926C174.699 32.2926 175.8 31.9631 176.771 31.2968L175.64 29.6478ZM173.498 30.2926C172.845 30.2926 172.343 30.1738 171.958 29.9789L171.054 31.7627C171.779 32.1302 172.605 32.2926 173.498 32.2926V30.2926ZM171.973 29.9867C171.549 29.7625 171.242 29.491 171.022 29.1803L169.389 30.3347C169.81 30.9303 170.369 31.4009 171.039 31.7549L171.973 29.9867ZM170.205 28.7575H170.159V30.7575H170.205V28.7575ZM169.159 29.7575V30.9997H171.159V29.7575H169.159ZM170.159 29.9997H165.166V31.9997H170.159V29.9997ZM166.166 30.9997V13.2341H164.166V30.9997H166.166ZM165.166 14.2341H170.159V12.2341H165.166V14.2341ZM169.159 13.2341V20.6286H171.159V13.2341H169.159ZM170.159 21.6286H170.205V19.6286H170.159V21.6286ZM171.041 21.1782C171.332 20.7351 171.727 20.3796 172.247 20.1104L171.328 18.3343C170.52 18.7525 169.86 19.3345 169.37 20.079L171.041 21.1782ZM172.243 20.1126C172.764 19.8457 173.345 19.7067 174.002 19.7067V17.7067C173.05 17.7067 172.154 17.9115 171.332 18.3321L172.243 20.1126ZM174.002 19.7067C175.273 19.7067 176.121 20.1152 176.701 20.8424L178.264 19.5945C177.235 18.306 175.762 17.7067 174.002 17.7067V19.7067ZM176.704 20.8461C177.317 21.6067 177.701 22.8184 177.701 24.6364H179.701C179.701 22.5794 179.273 20.8458 178.261 19.5908L176.704 20.8461ZM174.639 24.7887C174.639 23.8812 174.467 23.0184 173.963 22.3626L172.378 23.582C172.498 23.7388 172.639 24.0869 172.639 24.7887H174.639ZM173.97 22.3723C173.449 21.6769 172.689 21.363 171.846 21.363V23.363C172.159 23.363 172.282 23.4552 172.37 23.5723L173.97 22.3723ZM171.846 21.363C171.006 21.363 170.303 21.7386 169.788 22.3828L171.35 23.6322C171.522 23.417 171.67 23.363 171.846 23.363V21.363ZM169.786 22.3846C169.276 23.0254 169.065 23.8139 169.065 24.6598H171.065C171.065 24.1464 171.189 23.8334 171.351 23.6304L169.786 22.3846ZM169.065 24.6598V25.3864H171.065V24.6598H169.065ZM169.065 25.3864C169.065 26.2146 169.248 26.9956 169.722 27.627L171.322 26.427C171.186 26.2459 171.065 25.9331 171.065 25.3864H169.065ZM169.722 27.627C170.219 28.2896 170.928 28.6364 171.752 28.6364V26.6364C171.546 26.6364 171.434 26.5769 171.322 26.427L169.722 27.627ZM171.752 28.6364C172.681 28.6364 173.461 28.2288 173.979 27.4528L172.315 26.3434C172.176 26.5518 172.026 26.6364 171.752 26.6364V28.6364ZM173.983 27.4468C174.46 26.72 174.639 25.7962 174.639 24.7887H172.639C172.639 25.5938 172.49 26.0763 172.311 26.3495L173.983 27.4468ZM188.78 30.1794L189.364 30.991L189.365 30.9902L188.78 30.1794ZM182.451 31.1286L182.314 32.1191L182.315 32.1193L182.451 31.1286ZM180.518 30.7301H179.518V31.4653L180.22 31.6846L180.518 30.7301ZM180.518 27.2262L180.924 26.3124L179.518 25.6875V27.2262H180.518ZM185.346 26.9333L184.819 27.7829L184.829 27.7896L184.84 27.796L185.346 26.9333ZM183.565 26.2419L183.881 25.2932L183.874 25.2907L183.866 25.2884L183.565 26.2419ZM181.994 19.7966L182.584 20.6042L182.585 20.6034L181.994 19.7966ZM189.494 19.1637H190.494V18.3905L189.746 18.1959L189.494 19.1637ZM189.494 22.527L189.101 23.4462L190.494 24.0436V22.527H189.494ZM186.905 23.4645L186.61 24.42L186.617 24.4222L186.623 24.4242L186.905 23.4645ZM189.338 27.0153C189.338 28.0764 188.955 28.8195 188.194 29.3685L189.365 30.9902C190.682 30.0392 191.338 28.673 191.338 27.0153H189.338ZM188.195 29.3677C187.396 29.943 186.189 30.2926 184.455 30.2926V32.2926C186.425 32.2926 188.101 31.9001 189.364 30.991L188.195 29.3677ZM184.455 30.2926C183.978 30.2926 183.359 30.2438 182.587 30.1379L182.315 32.1193C183.138 32.2322 183.855 32.2926 184.455 32.2926V30.2926ZM182.589 30.1381C181.829 30.0328 181.244 29.9094 180.816 29.7757L180.22 31.6846C180.792 31.8634 181.496 32.0056 182.314 32.1191L182.589 30.1381ZM181.518 30.7301V27.2262H179.518V30.7301H181.518ZM180.112 28.1401C181.645 28.8217 183.028 29.2106 184.221 29.2106V27.2106C183.43 27.2106 182.343 26.9433 180.924 26.3124L180.112 28.1401ZM184.221 29.2106C184.763 29.2106 185.323 29.1456 185.781 28.9074C186.025 28.7807 186.262 28.5929 186.436 28.3218C186.613 28.0463 186.686 27.743 186.686 27.4489H184.686C184.686 27.4087 184.698 27.3275 184.752 27.2425C184.804 27.1618 184.859 27.1327 184.858 27.133C184.853 27.1357 184.806 27.1578 184.691 27.1777C184.579 27.1972 184.425 27.2106 184.221 27.2106V29.2106ZM186.686 27.4489C186.686 26.7924 186.297 26.3317 185.852 26.0706L184.84 27.796C184.857 27.8056 184.814 27.7845 184.766 27.7121C184.712 27.6305 184.686 27.5339 184.686 27.4489H186.686ZM185.873 26.0836C185.673 25.9594 185.39 25.8381 185.093 25.7227C184.775 25.5993 184.369 25.4559 183.881 25.2932L183.249 27.1905C183.721 27.3482 184.093 27.4802 184.369 27.5872C184.507 27.6407 184.614 27.6855 184.695 27.7221C184.735 27.7402 184.766 27.7549 184.788 27.7663C184.811 27.7782 184.82 27.7837 184.819 27.7829L185.873 26.0836ZM183.866 25.2884C182.895 24.9814 182.315 24.6112 181.998 24.2482L180.491 25.5637C181.143 26.31 182.109 26.8304 183.263 27.1953L183.866 25.2884ZM181.998 24.2482C181.704 23.912 181.518 23.4397 181.518 22.738H179.518C179.518 23.8175 179.816 24.7905 180.491 25.5637L181.998 24.2482ZM181.518 22.738C181.518 21.8078 181.863 21.1304 182.584 20.6042L181.405 18.9889C180.157 19.9002 179.518 21.1837 179.518 22.738H181.518ZM182.585 20.6034C183.344 20.0478 184.497 19.7067 186.166 19.7067V17.7067C184.257 17.7067 182.629 18.0922 181.404 18.9897L182.585 20.6034ZM186.166 19.7067C187.116 19.7067 188.141 19.845 189.243 20.1316L189.746 18.1959C188.505 17.8731 187.31 17.7067 186.166 17.7067V19.7067ZM188.494 19.1637V22.527H190.494V19.1637H188.494ZM189.888 21.6079C189.338 21.3721 188.745 21.1795 188.111 21.0273L187.644 22.9721C188.182 23.1011 188.666 23.26 189.101 23.4462L189.888 21.6079ZM188.111 21.0273C187.483 20.8767 186.907 20.7887 186.401 20.7887V22.7887C186.691 22.7887 187.1 22.8415 187.644 22.9721L188.111 21.0273ZM186.401 20.7887C185.976 20.7887 185.525 20.8573 185.127 21.0803L186.104 22.8253C186.097 22.8296 186.169 22.7887 186.401 22.7887V20.7887ZM185.127 21.0803C184.671 21.3354 184.323 21.793 184.323 22.4098H186.323C186.323 22.4877 186.3 22.591 186.238 22.6888C186.179 22.7799 186.116 22.8185 186.104 22.8253L185.127 21.0803ZM184.323 22.4098C184.323 23.0149 184.634 23.4925 185.084 23.7927L186.194 22.1286C186.192 22.1272 186.231 22.1533 186.269 22.2193C186.309 22.2897 186.323 22.361 186.323 22.4098H184.323ZM185.084 23.7927C185.432 24.0243 185.987 24.2278 186.61 24.42L187.2 22.509C186.557 22.3107 186.268 22.1781 186.194 22.1286L185.084 23.7927ZM186.623 24.4242C187.779 24.7627 188.46 25.1589 188.814 25.534L190.268 24.1607C189.56 23.4108 188.484 22.8851 187.186 22.5049L186.623 24.4242ZM188.814 25.534C189.145 25.8844 189.338 26.349 189.338 27.0153H191.338C191.338 25.916 191 24.9352 190.268 24.1607L188.814 25.534Z" fill="#E5E5E5"/>
</svg>
