<svg width="212" height="212" viewBox="0 0 212 212" fill="none" xmlns="http://www.w3.org/2000/svg">
<g clip-path="url(#clip0_4_4294)">
<path d="M174.612 60.288V59.7219C174.612 22.7512 145.317 0 103.515 0C79.4028 0 60.2345 6.798 44.8798 17.3229C35.9537 23.4402 35.1502 36.8515 41.6896 45.4821L46.4583 51.7758C52.9978 60.4026 64.7077 61.2227 74.187 55.9867C82.8259 51.2142 91.5876 48.6308 99.8171 48.6308C113.467 48.6308 121.146 54.6004 121.146 64.2727V64.5554C121.146 76.7862 109.485 94.2644 76.496 97.1063L75.36 98.3856C74.7328 99.0912 75.5243 108.345 77.1232 119.05L78.4356 127.78C80.0345 138.485 89.0382 147.16 98.5386 147.16C108.039 147.16 116.509 143.085 117.445 138.062C118.391 133.036 119.154 128.96 119.154 128.96C150.716 121.277 174.612 96.1226 174.612 60.288Z" fill="#FCA311"/>
<path d="M89.2681 163.652C78.4439 163.652 69.6739 172.426 69.6739 183.251V192.402C69.6739 203.226 78.4484 212.001 89.2681 212.001H106.095C116.919 212.001 125.694 203.226 125.694 192.402V183.251C125.694 172.426 116.915 163.652 106.095 163.652H89.2681Z" fill="#FCA311"/>
</g>
<defs>
<clipPath id="clip0_4_4294">
<rect width="212" height="212" fill="white"/>
</clipPath>
</defs>
</svg>
